G04 #@! TF.FileFunction,Legend,Top*
%FSLAX46Y46*%
G04 Gerber Fmt 4.6, Leading zero omitted, Abs format (unit mm)*
G04 Created by KiCad (PCBNEW (2015-07-24 BZR 5991)-product) date Tuesday, July 28, 2015 'PMt' 09:28:55 PM*
%MOMM*%
G01*
G04 APERTURE LIST*
%ADD10C,0.100000*%
%ADD11C,0.250000*%
%ADD12C,0.300000*%
%ADD13C,0.150000*%
G04 APERTURE END LIST*
D10*
D11*
X114846076Y-80507867D02*
X115322267Y-80507867D01*
X114750838Y-80793581D02*
X115084171Y-79793581D01*
X115417505Y-80793581D01*
X115750838Y-80126914D02*
X115750838Y-81126914D01*
X115750838Y-80174533D02*
X115846076Y-80126914D01*
X116036553Y-80126914D01*
X116131791Y-80174533D01*
X116179410Y-80222152D01*
X116227029Y-80317390D01*
X116227029Y-80603105D01*
X116179410Y-80698343D01*
X116131791Y-80745962D01*
X116036553Y-80793581D01*
X115846076Y-80793581D01*
X115750838Y-80745962D01*
X116655600Y-80126914D02*
X116655600Y-81126914D01*
X116655600Y-80174533D02*
X116750838Y-80126914D01*
X116941315Y-80126914D01*
X117036553Y-80174533D01*
X117084172Y-80222152D01*
X117131791Y-80317390D01*
X117131791Y-80603105D01*
X117084172Y-80698343D01*
X117036553Y-80745962D01*
X116941315Y-80793581D01*
X116750838Y-80793581D01*
X116655600Y-80745962D01*
X117703219Y-80793581D02*
X117607981Y-80745962D01*
X117560362Y-80650724D01*
X117560362Y-79793581D01*
X118465125Y-80745962D02*
X118369887Y-80793581D01*
X118179410Y-80793581D01*
X118084172Y-80745962D01*
X118036553Y-80650724D01*
X118036553Y-80269771D01*
X118084172Y-80174533D01*
X118179410Y-80126914D01*
X118369887Y-80126914D01*
X118465125Y-80174533D01*
X118512744Y-80269771D01*
X118512744Y-80365010D01*
X118036553Y-80460248D01*
X119703220Y-80793581D02*
X119703220Y-79793581D01*
X120179410Y-80793581D02*
X120179410Y-79793581D01*
X121988934Y-80793581D02*
X121655600Y-80317390D01*
X121417505Y-80793581D02*
X121417505Y-79793581D01*
X121798458Y-79793581D01*
X121893696Y-79841200D01*
X121941315Y-79888819D01*
X121988934Y-79984057D01*
X121988934Y-80126914D01*
X121941315Y-80222152D01*
X121893696Y-80269771D01*
X121798458Y-80317390D01*
X121417505Y-80317390D01*
X122607981Y-79793581D02*
X122798458Y-79793581D01*
X122893696Y-79841200D01*
X122988934Y-79936438D01*
X123036553Y-80126914D01*
X123036553Y-80460248D01*
X122988934Y-80650724D01*
X122893696Y-80745962D01*
X122798458Y-80793581D01*
X122607981Y-80793581D01*
X122512743Y-80745962D01*
X122417505Y-80650724D01*
X122369886Y-80460248D01*
X122369886Y-80126914D01*
X122417505Y-79936438D01*
X122512743Y-79841200D01*
X122607981Y-79793581D01*
X123465124Y-80793581D02*
X123465124Y-79793581D01*
X123798458Y-80507867D01*
X124131791Y-79793581D01*
X124131791Y-80793581D01*
X125369886Y-80793581D02*
X125369886Y-79793581D01*
X125607981Y-79793581D01*
X125750839Y-79841200D01*
X125846077Y-79936438D01*
X125893696Y-80031676D01*
X125941315Y-80222152D01*
X125941315Y-80365010D01*
X125893696Y-80555486D01*
X125846077Y-80650724D01*
X125750839Y-80745962D01*
X125607981Y-80793581D01*
X125369886Y-80793581D01*
X126798458Y-80126914D02*
X126798458Y-80793581D01*
X126369886Y-80126914D02*
X126369886Y-80650724D01*
X126417505Y-80745962D01*
X126512743Y-80793581D01*
X126655601Y-80793581D01*
X126750839Y-80745962D01*
X126798458Y-80698343D01*
X127274648Y-80793581D02*
X127274648Y-80126914D01*
X127274648Y-80222152D02*
X127322267Y-80174533D01*
X127417505Y-80126914D01*
X127560363Y-80126914D01*
X127655601Y-80174533D01*
X127703220Y-80269771D01*
X127703220Y-80793581D01*
X127703220Y-80269771D02*
X127750839Y-80174533D01*
X127846077Y-80126914D01*
X127988934Y-80126914D01*
X128084172Y-80174533D01*
X128131791Y-80269771D01*
X128131791Y-80793581D01*
X128607981Y-80126914D02*
X128607981Y-81126914D01*
X128607981Y-80174533D02*
X128703219Y-80126914D01*
X128893696Y-80126914D01*
X128988934Y-80174533D01*
X129036553Y-80222152D01*
X129084172Y-80317390D01*
X129084172Y-80603105D01*
X129036553Y-80698343D01*
X128988934Y-80745962D01*
X128893696Y-80793581D01*
X128703219Y-80793581D01*
X128607981Y-80745962D01*
X131084172Y-80793581D02*
X131036553Y-80793581D01*
X130941315Y-80745962D01*
X130798458Y-80603105D01*
X130560363Y-80317390D01*
X130465124Y-80174533D01*
X130417505Y-80031676D01*
X130417505Y-79936438D01*
X130465124Y-79841200D01*
X130560363Y-79793581D01*
X130607982Y-79793581D01*
X130703220Y-79841200D01*
X130750839Y-79936438D01*
X130750839Y-79984057D01*
X130703220Y-80079295D01*
X130655601Y-80126914D01*
X130369886Y-80317390D01*
X130322267Y-80365010D01*
X130274648Y-80460248D01*
X130274648Y-80603105D01*
X130322267Y-80698343D01*
X130369886Y-80745962D01*
X130465124Y-80793581D01*
X130607982Y-80793581D01*
X130703220Y-80745962D01*
X130750839Y-80698343D01*
X130893696Y-80507867D01*
X130941315Y-80365010D01*
X130941315Y-80269771D01*
X132607982Y-80269771D02*
X132750839Y-80317390D01*
X132798458Y-80365010D01*
X132846077Y-80460248D01*
X132846077Y-80603105D01*
X132798458Y-80698343D01*
X132750839Y-80745962D01*
X132655601Y-80793581D01*
X132274648Y-80793581D01*
X132274648Y-79793581D01*
X132607982Y-79793581D01*
X132703220Y-79841200D01*
X132750839Y-79888819D01*
X132798458Y-79984057D01*
X132798458Y-80079295D01*
X132750839Y-80174533D01*
X132703220Y-80222152D01*
X132607982Y-80269771D01*
X132274648Y-80269771D01*
X133703220Y-80126914D02*
X133703220Y-80793581D01*
X133274648Y-80126914D02*
X133274648Y-80650724D01*
X133322267Y-80745962D01*
X133417505Y-80793581D01*
X133560363Y-80793581D01*
X133655601Y-80745962D01*
X133703220Y-80698343D01*
X134179410Y-80793581D02*
X134179410Y-80126914D01*
X134179410Y-80317390D02*
X134227029Y-80222152D01*
X134274648Y-80174533D01*
X134369886Y-80126914D01*
X134465125Y-80126914D01*
X134798458Y-80126914D02*
X134798458Y-80793581D01*
X134798458Y-80222152D02*
X134846077Y-80174533D01*
X134941315Y-80126914D01*
X135084173Y-80126914D01*
X135179411Y-80174533D01*
X135227030Y-80269771D01*
X135227030Y-80793581D01*
X136322268Y-79793581D02*
X136893697Y-79793581D01*
X136607982Y-80793581D02*
X136607982Y-79793581D01*
X137369887Y-80793581D02*
X137274649Y-80745962D01*
X137227030Y-80698343D01*
X137179411Y-80603105D01*
X137179411Y-80317390D01*
X137227030Y-80222152D01*
X137274649Y-80174533D01*
X137369887Y-80126914D01*
X137512745Y-80126914D01*
X137607983Y-80174533D01*
X137655602Y-80222152D01*
X137703221Y-80317390D01*
X137703221Y-80603105D01*
X137655602Y-80698343D01*
X137607983Y-80745962D01*
X137512745Y-80793581D01*
X137369887Y-80793581D01*
X138274649Y-80793581D02*
X138179411Y-80745962D01*
X138131792Y-80698343D01*
X138084173Y-80603105D01*
X138084173Y-80317390D01*
X138131792Y-80222152D01*
X138179411Y-80174533D01*
X138274649Y-80126914D01*
X138417507Y-80126914D01*
X138512745Y-80174533D01*
X138560364Y-80222152D01*
X138607983Y-80317390D01*
X138607983Y-80603105D01*
X138560364Y-80698343D01*
X138512745Y-80745962D01*
X138417507Y-80793581D01*
X138274649Y-80793581D01*
X139179411Y-80793581D02*
X139084173Y-80745962D01*
X139036554Y-80650724D01*
X139036554Y-79793581D01*
X115703219Y-81681676D02*
X115607981Y-81634057D01*
X115417505Y-81634057D01*
X115322267Y-81681676D01*
X115227029Y-81776914D01*
X115179410Y-81872152D01*
X115179410Y-82062629D01*
X115227029Y-82157867D01*
X115322267Y-82253105D01*
X115417505Y-82300724D01*
X115607981Y-82300724D01*
X115703219Y-82253105D01*
X115512743Y-81300724D02*
X115274648Y-81348343D01*
X115036552Y-81491200D01*
X114893695Y-81729295D01*
X114846076Y-81967390D01*
X114893695Y-82205486D01*
X115036552Y-82443581D01*
X115274648Y-82586438D01*
X115512743Y-82634057D01*
X115750838Y-82586438D01*
X115988933Y-82443581D01*
X116131790Y-82205486D01*
X116179410Y-81967390D01*
X116131790Y-81729295D01*
X115988933Y-81491200D01*
X115750838Y-81348343D01*
X115512743Y-81300724D01*
X116560362Y-81538819D02*
X116607981Y-81491200D01*
X116703219Y-81443581D01*
X116941315Y-81443581D01*
X117036553Y-81491200D01*
X117084172Y-81538819D01*
X117131791Y-81634057D01*
X117131791Y-81729295D01*
X117084172Y-81872152D01*
X116512743Y-82443581D01*
X117131791Y-82443581D01*
X117750838Y-81443581D02*
X117846077Y-81443581D01*
X117941315Y-81491200D01*
X117988934Y-81538819D01*
X118036553Y-81634057D01*
X118084172Y-81824533D01*
X118084172Y-82062629D01*
X118036553Y-82253105D01*
X117988934Y-82348343D01*
X117941315Y-82395962D01*
X117846077Y-82443581D01*
X117750838Y-82443581D01*
X117655600Y-82395962D01*
X117607981Y-82348343D01*
X117560362Y-82253105D01*
X117512743Y-82062629D01*
X117512743Y-81824533D01*
X117560362Y-81634057D01*
X117607981Y-81538819D01*
X117655600Y-81491200D01*
X117750838Y-81443581D01*
X119036553Y-82443581D02*
X118465124Y-82443581D01*
X118750838Y-82443581D02*
X118750838Y-81443581D01*
X118655600Y-81586438D01*
X118560362Y-81681676D01*
X118465124Y-81729295D01*
X119941315Y-81443581D02*
X119465124Y-81443581D01*
X119417505Y-81919771D01*
X119465124Y-81872152D01*
X119560362Y-81824533D01*
X119798458Y-81824533D01*
X119893696Y-81872152D01*
X119941315Y-81919771D01*
X119988934Y-82015010D01*
X119988934Y-82253105D01*
X119941315Y-82348343D01*
X119893696Y-82395962D01*
X119798458Y-82443581D01*
X119560362Y-82443581D01*
X119465124Y-82395962D01*
X119417505Y-82348343D01*
X121846077Y-82538819D02*
X121750839Y-82491200D01*
X121655601Y-82395962D01*
X121512744Y-82253105D01*
X121417505Y-82205486D01*
X121322267Y-82205486D01*
X121369886Y-82443581D02*
X121274648Y-82395962D01*
X121179410Y-82300724D01*
X121131791Y-82110248D01*
X121131791Y-81776914D01*
X121179410Y-81586438D01*
X121274648Y-81491200D01*
X121369886Y-81443581D01*
X121560363Y-81443581D01*
X121655601Y-81491200D01*
X121750839Y-81586438D01*
X121798458Y-81776914D01*
X121798458Y-82110248D01*
X121750839Y-82300724D01*
X121655601Y-82395962D01*
X121560363Y-82443581D01*
X121369886Y-82443581D01*
X122655601Y-81776914D02*
X122655601Y-82443581D01*
X122227029Y-81776914D02*
X122227029Y-82300724D01*
X122274648Y-82395962D01*
X122369886Y-82443581D01*
X122512744Y-82443581D01*
X122607982Y-82395962D01*
X122655601Y-82348343D01*
X123131791Y-82443581D02*
X123131791Y-81776914D01*
X123131791Y-81443581D02*
X123084172Y-81491200D01*
X123131791Y-81538819D01*
X123179410Y-81491200D01*
X123131791Y-81443581D01*
X123131791Y-81538819D01*
X123607981Y-81776914D02*
X123607981Y-82443581D01*
X123607981Y-81872152D02*
X123655600Y-81824533D01*
X123750838Y-81776914D01*
X123893696Y-81776914D01*
X123988934Y-81824533D01*
X124036553Y-81919771D01*
X124036553Y-82443581D01*
X124512743Y-81776914D02*
X124512743Y-82443581D01*
X124512743Y-81872152D02*
X124560362Y-81824533D01*
X124655600Y-81776914D01*
X124798458Y-81776914D01*
X124893696Y-81824533D01*
X124941315Y-81919771D01*
X124941315Y-82443581D01*
X126179410Y-82443581D02*
X126179410Y-81443581D01*
X126417505Y-81443581D01*
X126560363Y-81491200D01*
X126655601Y-81586438D01*
X126703220Y-81681676D01*
X126750839Y-81872152D01*
X126750839Y-82015010D01*
X126703220Y-82205486D01*
X126655601Y-82300724D01*
X126560363Y-82395962D01*
X126417505Y-82443581D01*
X126179410Y-82443581D01*
X127607982Y-81776914D02*
X127607982Y-82443581D01*
X127179410Y-81776914D02*
X127179410Y-82300724D01*
X127227029Y-82395962D01*
X127322267Y-82443581D01*
X127465125Y-82443581D01*
X127560363Y-82395962D01*
X127607982Y-82348343D01*
X128084172Y-81776914D02*
X128084172Y-82443581D01*
X128084172Y-81872152D02*
X128131791Y-81824533D01*
X128227029Y-81776914D01*
X128369887Y-81776914D01*
X128465125Y-81824533D01*
X128512744Y-81919771D01*
X128512744Y-82443581D01*
X128988934Y-82443581D02*
X128988934Y-81443581D01*
X129084172Y-82062629D02*
X129369887Y-82443581D01*
X129369887Y-81776914D02*
X128988934Y-82157867D01*
X129798458Y-82443581D02*
X129798458Y-81776914D01*
X129798458Y-81443581D02*
X129750839Y-81491200D01*
X129798458Y-81538819D01*
X129846077Y-81491200D01*
X129798458Y-81443581D01*
X129798458Y-81538819D01*
X114893695Y-84093581D02*
X114893695Y-83093581D01*
X115322267Y-84093581D02*
X115322267Y-83569771D01*
X115274648Y-83474533D01*
X115179410Y-83426914D01*
X115036552Y-83426914D01*
X114941314Y-83474533D01*
X114893695Y-83522152D01*
X115655600Y-83426914D02*
X116036552Y-83426914D01*
X115798457Y-83093581D02*
X115798457Y-83950724D01*
X115846076Y-84045962D01*
X115941314Y-84093581D01*
X116036552Y-84093581D01*
X116227029Y-83426914D02*
X116607981Y-83426914D01*
X116369886Y-83093581D02*
X116369886Y-83950724D01*
X116417505Y-84045962D01*
X116512743Y-84093581D01*
X116607981Y-84093581D01*
X116941315Y-83426914D02*
X116941315Y-84426914D01*
X116941315Y-83474533D02*
X117036553Y-83426914D01*
X117227030Y-83426914D01*
X117322268Y-83474533D01*
X117369887Y-83522152D01*
X117417506Y-83617390D01*
X117417506Y-83903105D01*
X117369887Y-83998343D01*
X117322268Y-84045962D01*
X117227030Y-84093581D01*
X117036553Y-84093581D01*
X116941315Y-84045962D01*
X117846077Y-83998343D02*
X117893696Y-84045962D01*
X117846077Y-84093581D01*
X117798458Y-84045962D01*
X117846077Y-83998343D01*
X117846077Y-84093581D01*
X117846077Y-83474533D02*
X117893696Y-83522152D01*
X117846077Y-83569771D01*
X117798458Y-83522152D01*
X117846077Y-83474533D01*
X117846077Y-83569771D01*
X119036553Y-83045962D02*
X118179410Y-84331676D01*
X120084172Y-83045962D02*
X119227029Y-84331676D01*
X120322267Y-83426914D02*
X120512743Y-84093581D01*
X120703220Y-83617390D01*
X120893696Y-84093581D01*
X121084172Y-83426914D01*
X121369886Y-83426914D02*
X121560362Y-84093581D01*
X121750839Y-83617390D01*
X121941315Y-84093581D01*
X122131791Y-83426914D01*
X122417505Y-83426914D02*
X122607981Y-84093581D01*
X122798458Y-83617390D01*
X122988934Y-84093581D01*
X123179410Y-83426914D01*
X123560362Y-83998343D02*
X123607981Y-84045962D01*
X123560362Y-84093581D01*
X123512743Y-84045962D01*
X123560362Y-83998343D01*
X123560362Y-84093581D01*
X124465124Y-83426914D02*
X124465124Y-84426914D01*
X124465124Y-84045962D02*
X124369886Y-84093581D01*
X124179409Y-84093581D01*
X124084171Y-84045962D01*
X124036552Y-83998343D01*
X123988933Y-83903105D01*
X123988933Y-83617390D01*
X124036552Y-83522152D01*
X124084171Y-83474533D01*
X124179409Y-83426914D01*
X124369886Y-83426914D01*
X124465124Y-83474533D01*
X125369886Y-83426914D02*
X125369886Y-84093581D01*
X124941314Y-83426914D02*
X124941314Y-83950724D01*
X124988933Y-84045962D01*
X125084171Y-84093581D01*
X125227029Y-84093581D01*
X125322267Y-84045962D01*
X125369886Y-83998343D01*
X125846076Y-84093581D02*
X125846076Y-83426914D01*
X125846076Y-83093581D02*
X125798457Y-83141200D01*
X125846076Y-83188819D01*
X125893695Y-83141200D01*
X125846076Y-83093581D01*
X125846076Y-83188819D01*
X126322266Y-83426914D02*
X126322266Y-84093581D01*
X126322266Y-83522152D02*
X126369885Y-83474533D01*
X126465123Y-83426914D01*
X126607981Y-83426914D01*
X126703219Y-83474533D01*
X126750838Y-83569771D01*
X126750838Y-84093581D01*
X127227028Y-83426914D02*
X127227028Y-84093581D01*
X127227028Y-83522152D02*
X127274647Y-83474533D01*
X127369885Y-83426914D01*
X127512743Y-83426914D01*
X127607981Y-83474533D01*
X127655600Y-83569771D01*
X127655600Y-84093581D01*
X128560362Y-84093581D02*
X128560362Y-83093581D01*
X128560362Y-84045962D02*
X128465124Y-84093581D01*
X128274647Y-84093581D01*
X128179409Y-84045962D01*
X128131790Y-83998343D01*
X128084171Y-83903105D01*
X128084171Y-83617390D01*
X128131790Y-83522152D01*
X128179409Y-83474533D01*
X128274647Y-83426914D01*
X128465124Y-83426914D01*
X128560362Y-83474533D01*
X129465124Y-83426914D02*
X129465124Y-84093581D01*
X129036552Y-83426914D02*
X129036552Y-83950724D01*
X129084171Y-84045962D01*
X129179409Y-84093581D01*
X129322267Y-84093581D01*
X129417505Y-84045962D01*
X129465124Y-83998343D01*
X129941314Y-83426914D02*
X129941314Y-84093581D01*
X129941314Y-83522152D02*
X129988933Y-83474533D01*
X130084171Y-83426914D01*
X130227029Y-83426914D01*
X130322267Y-83474533D01*
X130369886Y-83569771D01*
X130369886Y-84093581D01*
X130846076Y-84093581D02*
X130846076Y-83093581D01*
X130941314Y-83712629D02*
X131227029Y-84093581D01*
X131227029Y-83426914D02*
X130846076Y-83807867D01*
X131655600Y-84093581D02*
X131655600Y-83426914D01*
X131655600Y-83093581D02*
X131607981Y-83141200D01*
X131655600Y-83188819D01*
X131703219Y-83141200D01*
X131655600Y-83093581D01*
X131655600Y-83188819D01*
X132131790Y-83998343D02*
X132179409Y-84045962D01*
X132131790Y-84093581D01*
X132084171Y-84045962D01*
X132131790Y-83998343D01*
X132131790Y-84093581D01*
X133036552Y-84045962D02*
X132941314Y-84093581D01*
X132750837Y-84093581D01*
X132655599Y-84045962D01*
X132607980Y-83998343D01*
X132560361Y-83903105D01*
X132560361Y-83617390D01*
X132607980Y-83522152D01*
X132655599Y-83474533D01*
X132750837Y-83426914D01*
X132941314Y-83426914D01*
X133036552Y-83474533D01*
X133607980Y-84093581D02*
X133512742Y-84045962D01*
X133465123Y-83998343D01*
X133417504Y-83903105D01*
X133417504Y-83617390D01*
X133465123Y-83522152D01*
X133512742Y-83474533D01*
X133607980Y-83426914D01*
X133750838Y-83426914D01*
X133846076Y-83474533D01*
X133893695Y-83522152D01*
X133941314Y-83617390D01*
X133941314Y-83903105D01*
X133893695Y-83998343D01*
X133846076Y-84045962D01*
X133750838Y-84093581D01*
X133607980Y-84093581D01*
X134369885Y-84093581D02*
X134369885Y-83426914D01*
X134369885Y-83522152D02*
X134417504Y-83474533D01*
X134512742Y-83426914D01*
X134655600Y-83426914D01*
X134750838Y-83474533D01*
X134798457Y-83569771D01*
X134798457Y-84093581D01*
X134798457Y-83569771D02*
X134846076Y-83474533D01*
X134941314Y-83426914D01*
X135084171Y-83426914D01*
X135179409Y-83474533D01*
X135227028Y-83569771D01*
X135227028Y-84093581D01*
X136417504Y-83045962D02*
X135560361Y-84331676D01*
X136750837Y-84093581D02*
X136750837Y-83093581D01*
X136750837Y-83474533D02*
X136846075Y-83426914D01*
X137036552Y-83426914D01*
X137131790Y-83474533D01*
X137179409Y-83522152D01*
X137227028Y-83617390D01*
X137227028Y-83903105D01*
X137179409Y-83998343D01*
X137131790Y-84045962D01*
X137036552Y-84093581D01*
X136846075Y-84093581D01*
X136750837Y-84045962D01*
X137798456Y-84093581D02*
X137703218Y-84045962D01*
X137655599Y-83950724D01*
X137655599Y-83093581D01*
X138322266Y-84093581D02*
X138227028Y-84045962D01*
X138179409Y-83998343D01*
X138131790Y-83903105D01*
X138131790Y-83617390D01*
X138179409Y-83522152D01*
X138227028Y-83474533D01*
X138322266Y-83426914D01*
X138465124Y-83426914D01*
X138560362Y-83474533D01*
X138607981Y-83522152D01*
X138655600Y-83617390D01*
X138655600Y-83903105D01*
X138607981Y-83998343D01*
X138560362Y-84045962D01*
X138465124Y-84093581D01*
X138322266Y-84093581D01*
X139084171Y-83426914D02*
X139084171Y-84093581D01*
X139084171Y-83522152D02*
X139131790Y-83474533D01*
X139227028Y-83426914D01*
X139369886Y-83426914D01*
X139465124Y-83474533D01*
X139512743Y-83569771D01*
X139512743Y-84093581D01*
X140417505Y-84093581D02*
X140417505Y-83093581D01*
X140417505Y-84045962D02*
X140322267Y-84093581D01*
X140131790Y-84093581D01*
X140036552Y-84045962D01*
X139988933Y-83998343D01*
X139941314Y-83903105D01*
X139941314Y-83617390D01*
X139988933Y-83522152D01*
X140036552Y-83474533D01*
X140131790Y-83426914D01*
X140322267Y-83426914D01*
X140417505Y-83474533D01*
X140893695Y-84093581D02*
X140893695Y-83426914D01*
X140893695Y-83093581D02*
X140846076Y-83141200D01*
X140893695Y-83188819D01*
X140941314Y-83141200D01*
X140893695Y-83093581D01*
X140893695Y-83188819D01*
X141369885Y-84093581D02*
X141369885Y-83093581D01*
X141798457Y-84093581D02*
X141798457Y-83569771D01*
X141750838Y-83474533D01*
X141655600Y-83426914D01*
X141512742Y-83426914D01*
X141417504Y-83474533D01*
X141369885Y-83522152D01*
X142703219Y-84093581D02*
X142703219Y-83569771D01*
X142655600Y-83474533D01*
X142560362Y-83426914D01*
X142369885Y-83426914D01*
X142274647Y-83474533D01*
X142703219Y-84045962D02*
X142607981Y-84093581D01*
X142369885Y-84093581D01*
X142274647Y-84045962D01*
X142227028Y-83950724D01*
X142227028Y-83855486D01*
X142274647Y-83760248D01*
X142369885Y-83712629D01*
X142607981Y-83712629D01*
X142703219Y-83665010D01*
X143607981Y-84045962D02*
X143512743Y-84093581D01*
X143322266Y-84093581D01*
X143227028Y-84045962D01*
X143179409Y-83998343D01*
X143131790Y-83903105D01*
X143131790Y-83617390D01*
X143179409Y-83522152D01*
X143227028Y-83474533D01*
X143322266Y-83426914D01*
X143512743Y-83426914D01*
X143607981Y-83474533D01*
X144036552Y-84093581D02*
X144036552Y-83093581D01*
X144131790Y-83712629D02*
X144417505Y-84093581D01*
X144417505Y-83426914D02*
X144036552Y-83807867D01*
X144798457Y-84045962D02*
X144893695Y-84093581D01*
X145084171Y-84093581D01*
X145179410Y-84045962D01*
X145227029Y-83950724D01*
X145227029Y-83903105D01*
X145179410Y-83807867D01*
X145084171Y-83760248D01*
X144941314Y-83760248D01*
X144846076Y-83712629D01*
X144798457Y-83617390D01*
X144798457Y-83569771D01*
X144846076Y-83474533D01*
X144941314Y-83426914D01*
X145084171Y-83426914D01*
X145179410Y-83474533D01*
D12*
X123888572Y-109708143D02*
X125031429Y-109708143D01*
X124460000Y-110279571D02*
X124460000Y-109136714D01*
X145376972Y-92055143D02*
X146519829Y-92055143D01*
X145948400Y-92626571D02*
X145948400Y-91483714D01*
D13*
X111861600Y-81026000D02*
G75*
G03X111861600Y-81026000I-2286000J0D01*
G01*
X194767200Y-81026000D02*
G75*
G03X194767200Y-81026000I-2286000J0D01*
G01*
X194767200Y-131267200D02*
G75*
G03X194767200Y-131267200I-2286000J0D01*
G01*
X137231888Y-90296096D02*
G75*
G03X137247000Y-93321000I-2484888J-1524904D01*
G01*
X137247000Y-90321000D02*
X137247000Y-93321000D01*
X137264936Y-91821000D02*
G75*
G03X137264936Y-91821000I-2517936J0D01*
G01*
X128270000Y-115062000D02*
X128270000Y-120142000D01*
X127990000Y-112242000D02*
X129540000Y-112242000D01*
X130810000Y-112522000D02*
X130810000Y-115062000D01*
X130810000Y-115062000D02*
X128270000Y-115062000D01*
X128270000Y-120142000D02*
X133350000Y-120142000D01*
X133350000Y-120142000D02*
X133350000Y-115062000D01*
X127990000Y-112242000D02*
X127990000Y-113792000D01*
X133350000Y-112522000D02*
X130810000Y-112522000D01*
X133350000Y-115062000D02*
X133350000Y-112522000D01*
X143669000Y-99473000D02*
X143669000Y-100148000D01*
X154019000Y-99473000D02*
X154019000Y-100148000D01*
X154019000Y-109823000D02*
X154019000Y-109148000D01*
X143669000Y-109823000D02*
X143669000Y-109148000D01*
X143669000Y-99473000D02*
X144344000Y-99473000D01*
X143669000Y-109823000D02*
X144344000Y-109823000D01*
X154019000Y-109823000D02*
X153344000Y-109823000D01*
X154019000Y-99473000D02*
X153344000Y-99473000D01*
X143669000Y-100148000D02*
X142394000Y-100148000D01*
X178054000Y-87884000D02*
X178054000Y-87884000D01*
X178054000Y-87884000D02*
X178054000Y-89154000D01*
X178054000Y-89154000D02*
X175514000Y-89154000D01*
X175514000Y-89154000D02*
X175514000Y-87884000D01*
X183134000Y-87884000D02*
X183134000Y-125984000D01*
X183134000Y-125984000D02*
X170434000Y-125984000D01*
X170434000Y-125984000D02*
X170434000Y-87884000D01*
X170434000Y-87884000D02*
X183134000Y-87884000D01*
X118404000Y-126087000D02*
X118404000Y-126087000D01*
X123404000Y-108087000D02*
X118404000Y-108087000D01*
X118404000Y-108087000D02*
X118404000Y-126087000D01*
X118404000Y-126087000D02*
X123404000Y-126087000D01*
X123404000Y-126087000D02*
X123404000Y-108087000D01*
X145058000Y-85892000D02*
X145058000Y-85892000D01*
X163058000Y-90892000D02*
X163058000Y-85892000D01*
X163058000Y-85892000D02*
X145058000Y-85892000D01*
X145058000Y-85892000D02*
X145058000Y-90892000D01*
X145058000Y-90892000D02*
X163058000Y-90892000D01*
X145419000Y-115717000D02*
X148419000Y-115717000D01*
X148419000Y-118217000D02*
X145419000Y-118217000D01*
X175391000Y-84475000D02*
X178391000Y-84475000D01*
X178391000Y-86975000D02*
X175391000Y-86975000D01*
X130937000Y-105410000D02*
X125857000Y-105410000D01*
X125857000Y-105410000D02*
X125857000Y-102870000D01*
X125857000Y-102870000D02*
X130937000Y-102870000D01*
X130937000Y-102870000D02*
X130937000Y-105410000D01*
X130937000Y-104140000D02*
X132207000Y-104140000D01*
X125857000Y-104140000D02*
X124587000Y-104140000D01*
X130937000Y-102235000D02*
X125857000Y-102235000D01*
X125857000Y-102235000D02*
X125857000Y-99695000D01*
X125857000Y-99695000D02*
X130937000Y-99695000D01*
X130937000Y-99695000D02*
X130937000Y-102235000D01*
X130937000Y-100965000D02*
X132207000Y-100965000D01*
X125857000Y-100965000D02*
X124587000Y-100965000D01*
X125857000Y-96520000D02*
X130937000Y-96520000D01*
X130937000Y-96520000D02*
X130937000Y-99060000D01*
X130937000Y-99060000D02*
X125857000Y-99060000D01*
X125857000Y-99060000D02*
X125857000Y-96520000D01*
X125857000Y-97790000D02*
X124587000Y-97790000D01*
X130937000Y-97790000D02*
X132207000Y-97790000D01*
X139192000Y-130810000D02*
G75*
G03X139192000Y-130810000I-254000J0D01*
G01*
X137937240Y-120075960D02*
X137937240Y-132074920D01*
X157736540Y-132074920D02*
X137937240Y-132074920D01*
X158734760Y-119875300D02*
X158734760Y-130975100D01*
X139235180Y-118877080D02*
X157736540Y-118877080D01*
X158734760Y-119875300D02*
G75*
G03X157736540Y-118877080I-998220J0D01*
G01*
X139131040Y-118877080D02*
G75*
G03X137932160Y-120075960I0J-1198880D01*
G01*
X157736540Y-132074920D02*
G75*
G03X158734760Y-131076700I0J998220D01*
G01*
X111912400Y-131165600D02*
G75*
G03X111912400Y-131165600I-2286000J0D01*
G01*
X133754905Y-88209381D02*
X133754905Y-87209381D01*
X133993000Y-87209381D01*
X134135858Y-87257000D01*
X134231096Y-87352238D01*
X134278715Y-87447476D01*
X134326334Y-87637952D01*
X134326334Y-87780810D01*
X134278715Y-87971286D01*
X134231096Y-88066524D01*
X134135858Y-88161762D01*
X133993000Y-88209381D01*
X133754905Y-88209381D01*
X135278715Y-88209381D02*
X134707286Y-88209381D01*
X134993000Y-88209381D02*
X134993000Y-87209381D01*
X134897762Y-87352238D01*
X134802524Y-87447476D01*
X134707286Y-87495095D01*
X131008381Y-92336857D02*
X131008381Y-92813048D01*
X130008381Y-92813048D01*
X130484571Y-92003524D02*
X130484571Y-91670190D01*
X131008381Y-91527333D02*
X131008381Y-92003524D01*
X130008381Y-92003524D01*
X130008381Y-91527333D01*
X131008381Y-91098762D02*
X130008381Y-91098762D01*
X130008381Y-90860667D01*
X130056000Y-90717809D01*
X130151238Y-90622571D01*
X130246476Y-90574952D01*
X130436952Y-90527333D01*
X130579810Y-90527333D01*
X130770286Y-90574952D01*
X130865524Y-90622571D01*
X130960762Y-90717809D01*
X131008381Y-90860667D01*
X131008381Y-91098762D01*
X137660095Y-90368381D02*
X137660095Y-89368381D01*
X138231524Y-90368381D02*
X137802952Y-89796952D01*
X138231524Y-89368381D02*
X137660095Y-89939810D01*
X129849667Y-108545381D02*
X129849667Y-109259667D01*
X129802047Y-109402524D01*
X129706809Y-109497762D01*
X129563952Y-109545381D01*
X129468714Y-109545381D01*
X130325857Y-109545381D02*
X130325857Y-108545381D01*
X130706810Y-108545381D01*
X130802048Y-108593000D01*
X130849667Y-108640619D01*
X130897286Y-108735857D01*
X130897286Y-108878714D01*
X130849667Y-108973952D01*
X130802048Y-109021571D01*
X130706810Y-109069190D01*
X130325857Y-109069190D01*
X131849667Y-109545381D02*
X131278238Y-109545381D01*
X131563952Y-109545381D02*
X131563952Y-108545381D01*
X131468714Y-108688238D01*
X131373476Y-108783476D01*
X131278238Y-108831095D01*
X148082095Y-96650381D02*
X148082095Y-97459905D01*
X148129714Y-97555143D01*
X148177333Y-97602762D01*
X148272571Y-97650381D01*
X148463048Y-97650381D01*
X148558286Y-97602762D01*
X148605905Y-97555143D01*
X148653524Y-97459905D01*
X148653524Y-96650381D01*
X149653524Y-97650381D02*
X149082095Y-97650381D01*
X149367809Y-97650381D02*
X149367809Y-96650381D01*
X149272571Y-96793238D01*
X149177333Y-96888476D01*
X149082095Y-96936095D01*
X176276095Y-126833381D02*
X176276095Y-127642905D01*
X176323714Y-127738143D01*
X176371333Y-127785762D01*
X176466571Y-127833381D01*
X176657048Y-127833381D01*
X176752286Y-127785762D01*
X176799905Y-127738143D01*
X176847524Y-127642905D01*
X176847524Y-126833381D01*
X177276095Y-126928619D02*
X177323714Y-126881000D01*
X177418952Y-126833381D01*
X177657048Y-126833381D01*
X177752286Y-126881000D01*
X177799905Y-126928619D01*
X177847524Y-127023857D01*
X177847524Y-127119095D01*
X177799905Y-127261952D01*
X177228476Y-127833381D01*
X177847524Y-127833381D01*
X117511143Y-117253666D02*
X117558762Y-117301285D01*
X117606381Y-117444142D01*
X117606381Y-117539380D01*
X117558762Y-117682238D01*
X117463524Y-117777476D01*
X117368286Y-117825095D01*
X117177810Y-117872714D01*
X117034952Y-117872714D01*
X116844476Y-117825095D01*
X116749238Y-117777476D01*
X116654000Y-117682238D01*
X116606381Y-117539380D01*
X116606381Y-117444142D01*
X116654000Y-117301285D01*
X116701619Y-117253666D01*
X117606381Y-116301285D02*
X117606381Y-116872714D01*
X117606381Y-116587000D02*
X116606381Y-116587000D01*
X116749238Y-116682238D01*
X116844476Y-116777476D01*
X116892095Y-116872714D01*
X121229381Y-117530428D02*
X121229381Y-118101857D01*
X121229381Y-117816143D02*
X120229381Y-117816143D01*
X120372238Y-117911381D01*
X120467476Y-118006619D01*
X120515095Y-118101857D01*
X120229381Y-116911381D02*
X120229381Y-116816142D01*
X120277000Y-116720904D01*
X120324619Y-116673285D01*
X120419857Y-116625666D01*
X120610333Y-116578047D01*
X120848429Y-116578047D01*
X121038905Y-116625666D01*
X121134143Y-116673285D01*
X121181762Y-116720904D01*
X121229381Y-116816142D01*
X121229381Y-116911381D01*
X121181762Y-117006619D01*
X121134143Y-117054238D01*
X121038905Y-117101857D01*
X120848429Y-117149476D01*
X120610333Y-117149476D01*
X120419857Y-117101857D01*
X120324619Y-117054238D01*
X120277000Y-117006619D01*
X120229381Y-116911381D01*
X120562714Y-115720904D02*
X121229381Y-115720904D01*
X120562714Y-116149476D02*
X121086524Y-116149476D01*
X121181762Y-116101857D01*
X121229381Y-116006619D01*
X121229381Y-115863761D01*
X121181762Y-115768523D01*
X121134143Y-115720904D01*
X120705571Y-114911380D02*
X120705571Y-115244714D01*
X121229381Y-115244714D02*
X120229381Y-115244714D01*
X120229381Y-114768523D01*
X153891334Y-84999143D02*
X153843715Y-85046762D01*
X153700858Y-85094381D01*
X153605620Y-85094381D01*
X153462762Y-85046762D01*
X153367524Y-84951524D01*
X153319905Y-84856286D01*
X153272286Y-84665810D01*
X153272286Y-84522952D01*
X153319905Y-84332476D01*
X153367524Y-84237238D01*
X153462762Y-84142000D01*
X153605620Y-84094381D01*
X153700858Y-84094381D01*
X153843715Y-84142000D01*
X153891334Y-84189619D01*
X154272286Y-84189619D02*
X154319905Y-84142000D01*
X154415143Y-84094381D01*
X154653239Y-84094381D01*
X154748477Y-84142000D01*
X154796096Y-84189619D01*
X154843715Y-84284857D01*
X154843715Y-84380095D01*
X154796096Y-84522952D01*
X154224667Y-85094381D01*
X154843715Y-85094381D01*
X153455762Y-88971381D02*
X152884333Y-88971381D01*
X153170047Y-88971381D02*
X153170047Y-87971381D01*
X153074809Y-88114238D01*
X152979571Y-88209476D01*
X152884333Y-88257095D01*
X154312905Y-88304714D02*
X154312905Y-88971381D01*
X153884333Y-88304714D02*
X153884333Y-88828524D01*
X153931952Y-88923762D01*
X154027190Y-88971381D01*
X154170048Y-88971381D01*
X154265286Y-88923762D01*
X154312905Y-88876143D01*
X155122429Y-88447571D02*
X154789095Y-88447571D01*
X154789095Y-88971381D02*
X154789095Y-87971381D01*
X155265286Y-87971381D01*
X145121334Y-115165143D02*
X145073715Y-115212762D01*
X144930858Y-115260381D01*
X144835620Y-115260381D01*
X144692762Y-115212762D01*
X144597524Y-115117524D01*
X144549905Y-115022286D01*
X144502286Y-114831810D01*
X144502286Y-114688952D01*
X144549905Y-114498476D01*
X144597524Y-114403238D01*
X144692762Y-114308000D01*
X144835620Y-114260381D01*
X144930858Y-114260381D01*
X145073715Y-114308000D01*
X145121334Y-114355619D01*
X145454667Y-114260381D02*
X146073715Y-114260381D01*
X145740381Y-114641333D01*
X145883239Y-114641333D01*
X145978477Y-114688952D01*
X146026096Y-114736571D01*
X146073715Y-114831810D01*
X146073715Y-115069905D01*
X146026096Y-115165143D01*
X145978477Y-115212762D01*
X145883239Y-115260381D01*
X145597524Y-115260381D01*
X145502286Y-115212762D01*
X145454667Y-115165143D01*
X140692381Y-117546381D02*
X140120952Y-117546381D01*
X140406666Y-117546381D02*
X140406666Y-116546381D01*
X140311428Y-116689238D01*
X140216190Y-116784476D01*
X140120952Y-116832095D01*
X141311428Y-116546381D02*
X141406667Y-116546381D01*
X141501905Y-116594000D01*
X141549524Y-116641619D01*
X141597143Y-116736857D01*
X141644762Y-116927333D01*
X141644762Y-117165429D01*
X141597143Y-117355905D01*
X141549524Y-117451143D01*
X141501905Y-117498762D01*
X141406667Y-117546381D01*
X141311428Y-117546381D01*
X141216190Y-117498762D01*
X141168571Y-117451143D01*
X141120952Y-117355905D01*
X141073333Y-117165429D01*
X141073333Y-116927333D01*
X141120952Y-116736857D01*
X141168571Y-116641619D01*
X141216190Y-116594000D01*
X141311428Y-116546381D01*
X142263809Y-116546381D02*
X142359048Y-116546381D01*
X142454286Y-116594000D01*
X142501905Y-116641619D01*
X142549524Y-116736857D01*
X142597143Y-116927333D01*
X142597143Y-117165429D01*
X142549524Y-117355905D01*
X142501905Y-117451143D01*
X142454286Y-117498762D01*
X142359048Y-117546381D01*
X142263809Y-117546381D01*
X142168571Y-117498762D01*
X142120952Y-117451143D01*
X142073333Y-117355905D01*
X142025714Y-117165429D01*
X142025714Y-116927333D01*
X142073333Y-116736857D01*
X142120952Y-116641619D01*
X142168571Y-116594000D01*
X142263809Y-116546381D01*
X143025714Y-116879714D02*
X143025714Y-117546381D01*
X143025714Y-116974952D02*
X143073333Y-116927333D01*
X143168571Y-116879714D01*
X143311429Y-116879714D01*
X143406667Y-116927333D01*
X143454286Y-117022571D01*
X143454286Y-117546381D01*
X144263810Y-117022571D02*
X143930476Y-117022571D01*
X143930476Y-117546381D02*
X143930476Y-116546381D01*
X144406667Y-116546381D01*
X176871334Y-83669143D02*
X176823715Y-83716762D01*
X176680858Y-83764381D01*
X176585620Y-83764381D01*
X176442762Y-83716762D01*
X176347524Y-83621524D01*
X176299905Y-83526286D01*
X176252286Y-83335810D01*
X176252286Y-83192952D01*
X176299905Y-83002476D01*
X176347524Y-82907238D01*
X176442762Y-82812000D01*
X176585620Y-82764381D01*
X176680858Y-82764381D01*
X176823715Y-82812000D01*
X176871334Y-82859619D01*
X177728477Y-83097714D02*
X177728477Y-83764381D01*
X177490381Y-82716762D02*
X177252286Y-83431048D01*
X177871334Y-83431048D01*
X170283381Y-86812381D02*
X169711952Y-86812381D01*
X169997666Y-86812381D02*
X169997666Y-85812381D01*
X169902428Y-85955238D01*
X169807190Y-86050476D01*
X169711952Y-86098095D01*
X170902428Y-85812381D02*
X170997667Y-85812381D01*
X171092905Y-85860000D01*
X171140524Y-85907619D01*
X171188143Y-86002857D01*
X171235762Y-86193333D01*
X171235762Y-86431429D01*
X171188143Y-86621905D01*
X171140524Y-86717143D01*
X171092905Y-86764762D01*
X170997667Y-86812381D01*
X170902428Y-86812381D01*
X170807190Y-86764762D01*
X170759571Y-86717143D01*
X170711952Y-86621905D01*
X170664333Y-86431429D01*
X170664333Y-86193333D01*
X170711952Y-86002857D01*
X170759571Y-85907619D01*
X170807190Y-85860000D01*
X170902428Y-85812381D01*
X171854809Y-85812381D02*
X171950048Y-85812381D01*
X172045286Y-85860000D01*
X172092905Y-85907619D01*
X172140524Y-86002857D01*
X172188143Y-86193333D01*
X172188143Y-86431429D01*
X172140524Y-86621905D01*
X172092905Y-86717143D01*
X172045286Y-86764762D01*
X171950048Y-86812381D01*
X171854809Y-86812381D01*
X171759571Y-86764762D01*
X171711952Y-86717143D01*
X171664333Y-86621905D01*
X171616714Y-86431429D01*
X171616714Y-86193333D01*
X171664333Y-86002857D01*
X171711952Y-85907619D01*
X171759571Y-85860000D01*
X171854809Y-85812381D01*
X172616714Y-86145714D02*
X172616714Y-86812381D01*
X172616714Y-86240952D02*
X172664333Y-86193333D01*
X172759571Y-86145714D01*
X172902429Y-86145714D01*
X172997667Y-86193333D01*
X173045286Y-86288571D01*
X173045286Y-86812381D01*
X173854810Y-86288571D02*
X173521476Y-86288571D01*
X173521476Y-86812381D02*
X173521476Y-85812381D01*
X173997667Y-85812381D01*
X119721334Y-104211381D02*
X119388000Y-103735190D01*
X119149905Y-104211381D02*
X119149905Y-103211381D01*
X119530858Y-103211381D01*
X119626096Y-103259000D01*
X119673715Y-103306619D01*
X119721334Y-103401857D01*
X119721334Y-103544714D01*
X119673715Y-103639952D01*
X119626096Y-103687571D01*
X119530858Y-103735190D01*
X119149905Y-103735190D01*
X120673715Y-104211381D02*
X120102286Y-104211381D01*
X120388000Y-104211381D02*
X120388000Y-103211381D01*
X120292762Y-103354238D01*
X120197524Y-103449476D01*
X120102286Y-103497095D01*
X127635095Y-103687619D02*
X127682714Y-103640000D01*
X127777952Y-103592381D01*
X128016048Y-103592381D01*
X128111286Y-103640000D01*
X128158905Y-103687619D01*
X128206524Y-103782857D01*
X128206524Y-103878095D01*
X128158905Y-104020952D01*
X127587476Y-104592381D01*
X128206524Y-104592381D01*
X128587476Y-103687619D02*
X128635095Y-103640000D01*
X128730333Y-103592381D01*
X128968429Y-103592381D01*
X129063667Y-103640000D01*
X129111286Y-103687619D01*
X129158905Y-103782857D01*
X129158905Y-103878095D01*
X129111286Y-104020952D01*
X128539857Y-104592381D01*
X129158905Y-104592381D01*
X119721334Y-101036381D02*
X119388000Y-100560190D01*
X119149905Y-101036381D02*
X119149905Y-100036381D01*
X119530858Y-100036381D01*
X119626096Y-100084000D01*
X119673715Y-100131619D01*
X119721334Y-100226857D01*
X119721334Y-100369714D01*
X119673715Y-100464952D01*
X119626096Y-100512571D01*
X119530858Y-100560190D01*
X119149905Y-100560190D01*
X120102286Y-100131619D02*
X120149905Y-100084000D01*
X120245143Y-100036381D01*
X120483239Y-100036381D01*
X120578477Y-100084000D01*
X120626096Y-100131619D01*
X120673715Y-100226857D01*
X120673715Y-100322095D01*
X120626096Y-100464952D01*
X120054667Y-101036381D01*
X120673715Y-101036381D01*
X127381095Y-100639619D02*
X127428714Y-100592000D01*
X127523952Y-100544381D01*
X127762048Y-100544381D01*
X127857286Y-100592000D01*
X127904905Y-100639619D01*
X127952524Y-100734857D01*
X127952524Y-100830095D01*
X127904905Y-100972952D01*
X127333476Y-101544381D01*
X127952524Y-101544381D01*
X128333476Y-100639619D02*
X128381095Y-100592000D01*
X128476333Y-100544381D01*
X128714429Y-100544381D01*
X128809667Y-100592000D01*
X128857286Y-100639619D01*
X128904905Y-100734857D01*
X128904905Y-100830095D01*
X128857286Y-100972952D01*
X128285857Y-101544381D01*
X128904905Y-101544381D01*
X119721334Y-98369381D02*
X119388000Y-97893190D01*
X119149905Y-98369381D02*
X119149905Y-97369381D01*
X119530858Y-97369381D01*
X119626096Y-97417000D01*
X119673715Y-97464619D01*
X119721334Y-97559857D01*
X119721334Y-97702714D01*
X119673715Y-97797952D01*
X119626096Y-97845571D01*
X119530858Y-97893190D01*
X119149905Y-97893190D01*
X120054667Y-97369381D02*
X120673715Y-97369381D01*
X120340381Y-97750333D01*
X120483239Y-97750333D01*
X120578477Y-97797952D01*
X120626096Y-97845571D01*
X120673715Y-97940810D01*
X120673715Y-98178905D01*
X120626096Y-98274143D01*
X120578477Y-98321762D01*
X120483239Y-98369381D01*
X120197524Y-98369381D01*
X120102286Y-98321762D01*
X120054667Y-98274143D01*
X127238286Y-97369381D02*
X127857334Y-97369381D01*
X127524000Y-97750333D01*
X127666858Y-97750333D01*
X127762096Y-97797952D01*
X127809715Y-97845571D01*
X127857334Y-97940810D01*
X127857334Y-98178905D01*
X127809715Y-98274143D01*
X127762096Y-98321762D01*
X127666858Y-98369381D01*
X127381143Y-98369381D01*
X127285905Y-98321762D01*
X127238286Y-98274143D01*
X128238286Y-97464619D02*
X128285905Y-97417000D01*
X128381143Y-97369381D01*
X128619239Y-97369381D01*
X128714477Y-97417000D01*
X128762096Y-97464619D01*
X128809715Y-97559857D01*
X128809715Y-97655095D01*
X128762096Y-97797952D01*
X128190667Y-98369381D01*
X128809715Y-98369381D01*
X129428762Y-97369381D02*
X129524001Y-97369381D01*
X129619239Y-97417000D01*
X129666858Y-97464619D01*
X129714477Y-97559857D01*
X129762096Y-97750333D01*
X129762096Y-97988429D01*
X129714477Y-98178905D01*
X129666858Y-98274143D01*
X129619239Y-98321762D01*
X129524001Y-98369381D01*
X129428762Y-98369381D01*
X129333524Y-98321762D01*
X129285905Y-98274143D01*
X129238286Y-98178905D01*
X129190667Y-97988429D01*
X129190667Y-97750333D01*
X129238286Y-97559857D01*
X129285905Y-97464619D01*
X129333524Y-97417000D01*
X129428762Y-97369381D01*
X160051809Y-125452190D02*
X160051809Y-125928381D01*
X159718476Y-124928381D02*
X160051809Y-125452190D01*
X160385143Y-124928381D01*
X161242286Y-125928381D02*
X160670857Y-125928381D01*
X160956571Y-125928381D02*
X160956571Y-124928381D01*
X160861333Y-125071238D01*
X160766095Y-125166476D01*
X160670857Y-125214095D01*
X146716953Y-125928381D02*
X146145524Y-125928381D01*
X146431238Y-125928381D02*
X146431238Y-124928381D01*
X146336000Y-125071238D01*
X146240762Y-125166476D01*
X146145524Y-125214095D01*
X147574096Y-124928381D02*
X147383619Y-124928381D01*
X147288381Y-124976000D01*
X147240762Y-125023619D01*
X147145524Y-125166476D01*
X147097905Y-125356952D01*
X147097905Y-125737905D01*
X147145524Y-125833143D01*
X147193143Y-125880762D01*
X147288381Y-125928381D01*
X147478858Y-125928381D01*
X147574096Y-125880762D01*
X147621715Y-125833143D01*
X147669334Y-125737905D01*
X147669334Y-125499810D01*
X147621715Y-125404571D01*
X147574096Y-125356952D01*
X147478858Y-125309333D01*
X147288381Y-125309333D01*
X147193143Y-125356952D01*
X147145524Y-125404571D01*
X147097905Y-125499810D01*
X148097905Y-125928381D02*
X148097905Y-124928381D01*
X148431239Y-125642667D01*
X148764572Y-124928381D01*
X148764572Y-125928381D01*
X149240762Y-125928381D02*
X149240762Y-124928381D01*
X149669334Y-125928381D02*
X149669334Y-125404571D01*
X149621715Y-125309333D01*
X149526477Y-125261714D01*
X149383619Y-125261714D01*
X149288381Y-125309333D01*
X149240762Y-125356952D01*
X150050286Y-125261714D02*
X150574096Y-125261714D01*
X150050286Y-125928381D01*
X150574096Y-125928381D01*
X112037905Y-112212381D02*
X112037905Y-111212381D01*
X112418858Y-111212381D01*
X112514096Y-111260000D01*
X112561715Y-111307619D01*
X112609334Y-111402857D01*
X112609334Y-111545714D01*
X112561715Y-111640952D01*
X112514096Y-111688571D01*
X112418858Y-111736190D01*
X112037905Y-111736190D01*
X113561715Y-112212381D02*
X112990286Y-112212381D01*
X113276000Y-112212381D02*
X113276000Y-111212381D01*
X113180762Y-111355238D01*
X113085524Y-111450476D01*
X112990286Y-111498095D01*
X109053381Y-104131905D02*
X109862905Y-104131905D01*
X109958143Y-104084286D01*
X110005762Y-104036667D01*
X110053381Y-103941429D01*
X110053381Y-103750952D01*
X110005762Y-103655714D01*
X109958143Y-103608095D01*
X109862905Y-103560476D01*
X109053381Y-103560476D01*
X110005762Y-103131905D02*
X110053381Y-102989048D01*
X110053381Y-102750952D01*
X110005762Y-102655714D01*
X109958143Y-102608095D01*
X109862905Y-102560476D01*
X109767667Y-102560476D01*
X109672429Y-102608095D01*
X109624810Y-102655714D01*
X109577190Y-102750952D01*
X109529571Y-102941429D01*
X109481952Y-103036667D01*
X109434333Y-103084286D01*
X109339095Y-103131905D01*
X109243857Y-103131905D01*
X109148619Y-103084286D01*
X109101000Y-103036667D01*
X109053381Y-102941429D01*
X109053381Y-102703333D01*
X109101000Y-102560476D01*
X109529571Y-101798571D02*
X109577190Y-101655714D01*
X109624810Y-101608095D01*
X109720048Y-101560476D01*
X109862905Y-101560476D01*
X109958143Y-101608095D01*
X110005762Y-101655714D01*
X110053381Y-101750952D01*
X110053381Y-102131905D01*
X109053381Y-102131905D01*
X109053381Y-101798571D01*
X109101000Y-101703333D01*
X109148619Y-101655714D01*
X109243857Y-101608095D01*
X109339095Y-101608095D01*
X109434333Y-101655714D01*
X109481952Y-101703333D01*
X109529571Y-101798571D01*
X109529571Y-102131905D01*
M02*
