G04 #@! TF.FileFunction,Soldermask,Top*
%FSLAX46Y46*%
G04 Gerber Fmt 4.6, Leading zero omitted, Abs format (unit mm)*
G04 Created by KiCad (PCBNEW (2015-07-24 BZR 5991)-product) date Tuesday, July 28, 2015 'PMt' 09:28:55 PM*
%MOMM*%
G01*
G04 APERTURE LIST*
%ADD10C,0.100000*%
%ADD11C,4.064000*%
%ADD12R,1.900000X2.000000*%
%ADD13C,1.900000*%
%ADD14R,1.727200X1.727200*%
%ADD15O,1.727200X1.727200*%
%ADD16R,1.500000X0.550000*%
%ADD17R,0.550000X1.500000*%
%ADD18R,2.286000X1.574800*%
%ADD19O,2.286000X1.574800*%
%ADD20R,1.700000X1.700000*%
%ADD21C,1.700000*%
%ADD22R,1.300000X1.300000*%
%ADD23C,1.300000*%
%ADD24C,1.998980*%
%ADD25R,1.397000X1.397000*%
%ADD26C,1.397000*%
%ADD27C,1.524000*%
%ADD28C,2.700020*%
G04 APERTURE END LIST*
D10*
D11*
X109575600Y-81026000D03*
X192481200Y-81026000D03*
X192481200Y-131267200D03*
D12*
X136017000Y-91821000D03*
D13*
X133477000Y-91821000D03*
D14*
X129540000Y-113792000D03*
D15*
X132080000Y-113792000D03*
X129540000Y-116332000D03*
X132080000Y-116332000D03*
X129540000Y-118872000D03*
X132080000Y-118872000D03*
D16*
X143144000Y-100648000D03*
X143144000Y-101448000D03*
X143144000Y-102248000D03*
X143144000Y-103048000D03*
X143144000Y-103848000D03*
X143144000Y-104648000D03*
X143144000Y-105448000D03*
X143144000Y-106248000D03*
X143144000Y-107048000D03*
X143144000Y-107848000D03*
X143144000Y-108648000D03*
D17*
X144844000Y-110348000D03*
X145644000Y-110348000D03*
X146444000Y-110348000D03*
X147244000Y-110348000D03*
X148044000Y-110348000D03*
X148844000Y-110348000D03*
X149644000Y-110348000D03*
X150444000Y-110348000D03*
X151244000Y-110348000D03*
X152044000Y-110348000D03*
X152844000Y-110348000D03*
D16*
X154544000Y-108648000D03*
X154544000Y-107848000D03*
X154544000Y-107048000D03*
X154544000Y-106248000D03*
X154544000Y-105448000D03*
X154544000Y-104648000D03*
X154544000Y-103848000D03*
X154544000Y-103048000D03*
X154544000Y-102248000D03*
X154544000Y-101448000D03*
X154544000Y-100648000D03*
D17*
X152844000Y-98948000D03*
X152044000Y-98948000D03*
X151244000Y-98948000D03*
X150444000Y-98948000D03*
X149644000Y-98948000D03*
X148844000Y-98948000D03*
X148044000Y-98948000D03*
X147244000Y-98948000D03*
X146444000Y-98948000D03*
X145644000Y-98948000D03*
X144844000Y-98948000D03*
D18*
X169164000Y-90424000D03*
D19*
X169164000Y-92964000D03*
X169164000Y-95504000D03*
X169164000Y-98044000D03*
X169164000Y-100584000D03*
X169164000Y-103124000D03*
X169164000Y-105664000D03*
X169164000Y-108204000D03*
X169164000Y-110744000D03*
X169164000Y-113284000D03*
X169164000Y-115824000D03*
X169164000Y-118364000D03*
X169164000Y-120904000D03*
X169164000Y-123444000D03*
X184404000Y-123444000D03*
X184404000Y-120904000D03*
X184404000Y-118364000D03*
X184404000Y-115824000D03*
X184404000Y-113284000D03*
X184404000Y-110744000D03*
X184404000Y-108204000D03*
X184404000Y-105664000D03*
X184404000Y-103124000D03*
X184404000Y-100584000D03*
X184404000Y-98044000D03*
X184404000Y-95504000D03*
X184404000Y-92964000D03*
X184404000Y-90424000D03*
D20*
X120904000Y-124587000D03*
D21*
X120904000Y-109587000D03*
D20*
X146558000Y-88392000D03*
D21*
X161558000Y-88392000D03*
D22*
X145669000Y-116967000D03*
D23*
X148169000Y-116967000D03*
D22*
X175641000Y-85725000D03*
D23*
X178141000Y-85725000D03*
D24*
X133477000Y-104140000D03*
X123317000Y-104140000D03*
X133477000Y-100965000D03*
X123317000Y-100965000D03*
X123317000Y-97790000D03*
X133477000Y-97790000D03*
D25*
X140716000Y-129286000D03*
D26*
X155956000Y-129286000D03*
X155956000Y-121666000D03*
X140716000Y-121666000D03*
D11*
X109626400Y-131165600D03*
D27*
X114300000Y-101600000D03*
X114300000Y-104140000D03*
X112301020Y-104140000D03*
X112301020Y-101600000D03*
D28*
X109601000Y-96870520D03*
X109601000Y-108869480D03*
M02*
