G04 #@! TF.FileFunction,Copper,L1,Top,Signal*
%FSLAX46Y46*%
G04 Gerber Fmt 4.6, Leading zero omitted, Abs format (unit mm)*
G04 Created by KiCad (PCBNEW (2015-07-24 BZR 5991)-product) date Tuesday, July 28, 2015 'PMt' 09:28:55 PM*
%MOMM*%
G01*
G04 APERTURE LIST*
%ADD10C,0.100000*%
%ADD11C,4.064000*%
%ADD12R,1.900000X2.000000*%
%ADD13C,1.900000*%
%ADD14R,1.727200X1.727200*%
%ADD15O,1.727200X1.727200*%
%ADD16R,1.500000X0.550000*%
%ADD17R,0.550000X1.500000*%
%ADD18R,2.286000X1.574800*%
%ADD19O,2.286000X1.574800*%
%ADD20R,1.700000X1.700000*%
%ADD21C,1.700000*%
%ADD22R,1.300000X1.300000*%
%ADD23C,1.300000*%
%ADD24C,1.998980*%
%ADD25R,1.397000X1.397000*%
%ADD26C,1.397000*%
%ADD27C,1.524000*%
%ADD28C,2.700020*%
%ADD29C,0.600000*%
%ADD30C,0.500000*%
%ADD31C,0.600000*%
%ADD32C,1.000000*%
%ADD33C,0.250000*%
%ADD34C,0.254000*%
G04 APERTURE END LIST*
D10*
D11*
X109575600Y-81026000D03*
X192481200Y-81026000D03*
X192481200Y-131267200D03*
D12*
X136017000Y-91821000D03*
D13*
X133477000Y-91821000D03*
D14*
X129540000Y-113792000D03*
D15*
X132080000Y-113792000D03*
X129540000Y-116332000D03*
X132080000Y-116332000D03*
X129540000Y-118872000D03*
X132080000Y-118872000D03*
D16*
X143144000Y-100648000D03*
X143144000Y-101448000D03*
X143144000Y-102248000D03*
X143144000Y-103048000D03*
X143144000Y-103848000D03*
X143144000Y-104648000D03*
X143144000Y-105448000D03*
X143144000Y-106248000D03*
X143144000Y-107048000D03*
X143144000Y-107848000D03*
X143144000Y-108648000D03*
D17*
X144844000Y-110348000D03*
X145644000Y-110348000D03*
X146444000Y-110348000D03*
X147244000Y-110348000D03*
X148044000Y-110348000D03*
X148844000Y-110348000D03*
X149644000Y-110348000D03*
X150444000Y-110348000D03*
X151244000Y-110348000D03*
X152044000Y-110348000D03*
X152844000Y-110348000D03*
D16*
X154544000Y-108648000D03*
X154544000Y-107848000D03*
X154544000Y-107048000D03*
X154544000Y-106248000D03*
X154544000Y-105448000D03*
X154544000Y-104648000D03*
X154544000Y-103848000D03*
X154544000Y-103048000D03*
X154544000Y-102248000D03*
X154544000Y-101448000D03*
X154544000Y-100648000D03*
D17*
X152844000Y-98948000D03*
X152044000Y-98948000D03*
X151244000Y-98948000D03*
X150444000Y-98948000D03*
X149644000Y-98948000D03*
X148844000Y-98948000D03*
X148044000Y-98948000D03*
X147244000Y-98948000D03*
X146444000Y-98948000D03*
X145644000Y-98948000D03*
X144844000Y-98948000D03*
D18*
X169164000Y-90424000D03*
D19*
X169164000Y-92964000D03*
X169164000Y-95504000D03*
X169164000Y-98044000D03*
X169164000Y-100584000D03*
X169164000Y-103124000D03*
X169164000Y-105664000D03*
X169164000Y-108204000D03*
X169164000Y-110744000D03*
X169164000Y-113284000D03*
X169164000Y-115824000D03*
X169164000Y-118364000D03*
X169164000Y-120904000D03*
X169164000Y-123444000D03*
X184404000Y-123444000D03*
X184404000Y-120904000D03*
X184404000Y-118364000D03*
X184404000Y-115824000D03*
X184404000Y-113284000D03*
X184404000Y-110744000D03*
X184404000Y-108204000D03*
X184404000Y-105664000D03*
X184404000Y-103124000D03*
X184404000Y-100584000D03*
X184404000Y-98044000D03*
X184404000Y-95504000D03*
X184404000Y-92964000D03*
X184404000Y-90424000D03*
D20*
X120904000Y-124587000D03*
D21*
X120904000Y-109587000D03*
D20*
X146558000Y-88392000D03*
D21*
X161558000Y-88392000D03*
D22*
X145669000Y-116967000D03*
D23*
X148169000Y-116967000D03*
D22*
X175641000Y-85725000D03*
D23*
X178141000Y-85725000D03*
D24*
X133477000Y-104140000D03*
X123317000Y-104140000D03*
X133477000Y-100965000D03*
X123317000Y-100965000D03*
X123317000Y-97790000D03*
X133477000Y-97790000D03*
D25*
X140716000Y-129286000D03*
D26*
X155956000Y-129286000D03*
X155956000Y-121666000D03*
X140716000Y-121666000D03*
D11*
X109626400Y-131165600D03*
D27*
X114300000Y-101600000D03*
X114300000Y-104140000D03*
X112301020Y-104140000D03*
X112301020Y-101600000D03*
D28*
X109601000Y-96870520D03*
X109601000Y-108869480D03*
D29*
X147574000Y-114808000D03*
X141097000Y-103886000D03*
X152019000Y-97028000D03*
X145669000Y-96901000D03*
X156337000Y-102235000D03*
X137668000Y-108712000D03*
X141097000Y-111252000D03*
X139700000Y-107188000D03*
X140970000Y-107696000D03*
X135255000Y-117602000D03*
X139319000Y-103124000D03*
X139319000Y-102108000D03*
X142875000Y-94234000D03*
X140081000Y-112141000D03*
X160655000Y-102235000D03*
X148082000Y-104140000D03*
X149987000Y-116205000D03*
X161417000Y-115697000D03*
X165100000Y-114808000D03*
X160274000Y-114808000D03*
X162306000Y-112395000D03*
X160147000Y-110363000D03*
X157480000Y-99568000D03*
X160401000Y-95377000D03*
X159766000Y-92964000D03*
X188976000Y-103124000D03*
X189357000Y-108204000D03*
X193040000Y-96774000D03*
X189611000Y-81915000D03*
D30*
X147244000Y-110348000D02*
X147244000Y-109296000D01*
X147892000Y-108648000D02*
X154544000Y-108648000D01*
X147244000Y-109296000D02*
X147892000Y-108648000D01*
X147244000Y-110348000D02*
X147244000Y-114478000D01*
X147244000Y-114478000D02*
X147574000Y-114808000D01*
D31*
X143144000Y-103848000D02*
X141135000Y-103848000D01*
X141135000Y-103848000D02*
X141097000Y-103886000D01*
X152044000Y-98948000D02*
X152044000Y-97053000D01*
X152044000Y-97053000D02*
X152019000Y-97028000D01*
X145644000Y-98948000D02*
X145644000Y-96926000D01*
X145644000Y-96926000D02*
X145669000Y-96901000D01*
X154544000Y-107848000D02*
X153314000Y-107848000D01*
X153314000Y-107848000D02*
X152781000Y-107315000D01*
X146444000Y-109093000D02*
X146444000Y-107937000D01*
X146444000Y-107937000D02*
X146939000Y-107442000D01*
X143144000Y-105448000D02*
X144869000Y-105448000D01*
X144869000Y-105448000D02*
X145288000Y-105029000D01*
X152844000Y-98948000D02*
X152844000Y-100775000D01*
X152844000Y-100775000D02*
X152146000Y-101473000D01*
X144844000Y-98948000D02*
X144844000Y-100521000D01*
X144844000Y-100521000D02*
X145771000Y-101448000D01*
X143144000Y-101448000D02*
X145771000Y-101448000D01*
X145771000Y-101448000D02*
X145796000Y-101473000D01*
X146444000Y-110348000D02*
X146444000Y-109093000D01*
X146444000Y-109093000D02*
X146444000Y-108953000D01*
X146444000Y-110348000D02*
X146444000Y-114160000D01*
X146444000Y-114160000D02*
X146431000Y-114173000D01*
D30*
X146431000Y-110361000D02*
X146444000Y-110348000D01*
D32*
X120139000Y-109598000D02*
X121666000Y-109598000D01*
X114300000Y-104140000D02*
X114554000Y-104140000D01*
D31*
X140081000Y-104648000D02*
X138684000Y-104648000D01*
D30*
X137668000Y-102235000D02*
X137668000Y-94361000D01*
X137668000Y-94361000D02*
X143637000Y-88392000D01*
X146558000Y-88392000D02*
X143637000Y-88392000D01*
X140081000Y-104648000D02*
X143144000Y-104648000D01*
D31*
X137668000Y-103632000D02*
X137668000Y-102235000D01*
X138684000Y-104648000D02*
X137668000Y-103632000D01*
D30*
X154544000Y-102248000D02*
X156324000Y-102248000D01*
X156324000Y-102248000D02*
X156337000Y-102235000D01*
D33*
X137732000Y-108648000D02*
X143144000Y-108648000D01*
X137668000Y-108712000D02*
X137732000Y-108648000D01*
X136525000Y-107188000D02*
X139700000Y-107188000D01*
X136144000Y-107569000D02*
X136525000Y-107188000D01*
X136144000Y-110490000D02*
X136144000Y-107569000D01*
X136906000Y-111252000D02*
X136144000Y-110490000D01*
X141097000Y-111252000D02*
X136906000Y-111252000D01*
X139700000Y-107188000D02*
X139840000Y-107048000D01*
X139840000Y-107048000D02*
X143144000Y-107048000D01*
X141122000Y-107848000D02*
X143144000Y-107848000D01*
X140970000Y-107696000D02*
X141122000Y-107848000D01*
X145644000Y-110348000D02*
X145644000Y-111277000D01*
X139319000Y-117602000D02*
X135255000Y-117602000D01*
X145644000Y-111277000D02*
X139319000Y-117602000D01*
X139319000Y-103124000D02*
X139395000Y-103048000D01*
X139395000Y-103048000D02*
X143144000Y-103048000D01*
X139319000Y-102108000D02*
X139459000Y-102248000D01*
X139459000Y-102248000D02*
X143144000Y-102248000D01*
X142875000Y-94234000D02*
X141351000Y-94234000D01*
X141034000Y-100648000D02*
X140335000Y-99949000D01*
X140335000Y-99949000D02*
X140335000Y-95250000D01*
X141034000Y-100648000D02*
X143144000Y-100648000D01*
X141351000Y-94234000D02*
X140335000Y-95250000D01*
X135941000Y-106248000D02*
X143144000Y-106248000D01*
X135255000Y-106934000D02*
X135941000Y-106248000D01*
X135255000Y-111125000D02*
X135255000Y-106934000D01*
X136271000Y-112141000D02*
X135255000Y-111125000D01*
X140081000Y-112141000D02*
X136271000Y-112141000D01*
X144844000Y-110348000D02*
X144844000Y-107378000D01*
X160655000Y-102235000D02*
X167386000Y-95504000D01*
X167386000Y-95504000D02*
X169164000Y-95504000D01*
X144844000Y-107378000D02*
X148082000Y-104140000D01*
D30*
X148844000Y-110348000D02*
X148844000Y-115062000D01*
X148844000Y-115062000D02*
X149987000Y-116205000D01*
D33*
X149644000Y-110348000D02*
X149644000Y-114211000D01*
X151130000Y-115697000D02*
X161417000Y-115697000D01*
X149644000Y-114211000D02*
X151130000Y-115697000D01*
X150444000Y-110348000D02*
X150444000Y-113614000D01*
X165100000Y-114808000D02*
X168656000Y-118364000D01*
X151638000Y-114808000D02*
X160274000Y-114808000D01*
X150444000Y-113614000D02*
X151638000Y-114808000D01*
X168656000Y-118364000D02*
X169164000Y-118364000D01*
X151244000Y-110348000D02*
X151244000Y-113017000D01*
X164846000Y-120904000D02*
X169164000Y-120904000D01*
X163322000Y-119380000D02*
X164846000Y-120904000D01*
X163322000Y-114427000D02*
X163322000Y-119380000D01*
X162814000Y-113919000D02*
X163322000Y-114427000D01*
X152146000Y-113919000D02*
X162814000Y-113919000D01*
X151244000Y-113017000D02*
X152146000Y-113919000D01*
X152044000Y-110348000D02*
X152044000Y-112420000D01*
X152069000Y-112395000D02*
X162306000Y-112395000D01*
X152044000Y-112420000D02*
X152069000Y-112395000D01*
X152844000Y-110348000D02*
X160132000Y-110348000D01*
X160132000Y-110348000D02*
X160147000Y-110363000D01*
X164084000Y-117602000D02*
X166116000Y-119634000D01*
X164084000Y-112649000D02*
X164084000Y-117602000D01*
X154544000Y-107048000D02*
X158483000Y-107048000D01*
X179070000Y-120904000D02*
X184404000Y-120904000D01*
X177800000Y-119634000D02*
X179070000Y-120904000D01*
X166116000Y-119634000D02*
X177800000Y-119634000D01*
X158483000Y-107048000D02*
X164084000Y-112649000D01*
X154544000Y-106248000D02*
X159588000Y-106248000D01*
X179070000Y-115824000D02*
X184404000Y-115824000D01*
X177800000Y-114554000D02*
X179070000Y-115824000D01*
X167894000Y-114554000D02*
X177800000Y-114554000D01*
X159588000Y-106248000D02*
X167894000Y-114554000D01*
X154544000Y-105448000D02*
X160693000Y-105448000D01*
X179070000Y-113284000D02*
X184404000Y-113284000D01*
X177800000Y-112014000D02*
X179070000Y-113284000D01*
X167259000Y-112014000D02*
X177800000Y-112014000D01*
X160693000Y-105448000D02*
X167259000Y-112014000D01*
X154544000Y-104648000D02*
X165608000Y-104648000D01*
X167132000Y-103124000D02*
X169164000Y-103124000D01*
X165608000Y-104648000D02*
X167132000Y-103124000D01*
X154544000Y-103848000D02*
X163614000Y-103848000D01*
X166878000Y-100584000D02*
X169164000Y-100584000D01*
X163614000Y-103848000D02*
X166878000Y-100584000D01*
X154544000Y-103048000D02*
X162128000Y-103048000D01*
X167132000Y-98044000D02*
X169164000Y-98044000D01*
X162128000Y-103048000D02*
X167132000Y-98044000D01*
X154544000Y-101448000D02*
X158140000Y-101448000D01*
X165354000Y-90424000D02*
X169164000Y-90424000D01*
X163576000Y-92202000D02*
X165354000Y-90424000D01*
X163576000Y-96012000D02*
X163576000Y-92202000D01*
X158140000Y-101448000D02*
X163576000Y-96012000D01*
X154544000Y-100648000D02*
X156400000Y-100648000D01*
X156400000Y-100648000D02*
X157480000Y-99568000D01*
X151244000Y-96660000D02*
X152527000Y-95377000D01*
X152527000Y-95377000D02*
X160401000Y-95377000D01*
X151244000Y-98948000D02*
X151244000Y-96660000D01*
X150444000Y-98948000D02*
X150444000Y-95682000D01*
X153162000Y-92964000D02*
X159766000Y-92964000D01*
X150444000Y-95682000D02*
X153162000Y-92964000D01*
X189992000Y-103124000D02*
X188976000Y-103124000D01*
X190754000Y-98806000D02*
X190754000Y-102362000D01*
X190754000Y-102362000D02*
X189992000Y-103124000D01*
X184277000Y-84074000D02*
X187325000Y-85979000D01*
X149644000Y-95339000D02*
X161544000Y-84074000D01*
X161544000Y-84074000D02*
X184277000Y-84074000D01*
X149644000Y-98948000D02*
X149644000Y-95339000D01*
X191008000Y-89662000D02*
X190754000Y-98806000D01*
X187325000Y-85979000D02*
X191008000Y-89662000D01*
X190754000Y-98552000D02*
X190754000Y-98806000D01*
X191897000Y-105664000D02*
X189357000Y-108204000D01*
X191897000Y-97028000D02*
X191897000Y-105664000D01*
X185039000Y-82804000D02*
X188087000Y-84582000D01*
X192151000Y-88646000D02*
X191897000Y-97028000D01*
X188087000Y-84582000D02*
X192151000Y-88646000D01*
X148844000Y-98948000D02*
X148844000Y-94996000D01*
X191897000Y-96901000D02*
X191897000Y-97028000D01*
X161163000Y-82804000D02*
X185039000Y-82804000D01*
X148844000Y-94996000D02*
X161163000Y-82804000D01*
X148044000Y-94653000D02*
X161163000Y-81534000D01*
X161163000Y-81534000D02*
X186055000Y-81534000D01*
X148044000Y-98948000D02*
X148044000Y-94653000D01*
X188595000Y-82931000D02*
X186055000Y-81534000D01*
X193167000Y-87503000D02*
X188595000Y-82931000D01*
X193040000Y-96774000D02*
X193167000Y-87503000D01*
X147244000Y-94056000D02*
X161163000Y-80010000D01*
X161163000Y-80010000D02*
X186872393Y-80064296D01*
X147244000Y-94056000D02*
X147244000Y-98948000D01*
X189611000Y-81915000D02*
X186872393Y-80064296D01*
D34*
G36*
X190972439Y-78763709D02*
X190221545Y-79513293D01*
X189814664Y-80493173D01*
X189814233Y-80986986D01*
X189797799Y-80980162D01*
X189584725Y-80979976D01*
X187297931Y-79434600D01*
X187227840Y-79405136D01*
X187164714Y-79362764D01*
X187092485Y-79348238D01*
X187024565Y-79319687D01*
X186948537Y-79319289D01*
X186873998Y-79304298D01*
X161164605Y-79250002D01*
X161162078Y-79250499D01*
X161159549Y-79250008D01*
X161016698Y-79279098D01*
X160873645Y-79307239D01*
X160871500Y-79308666D01*
X160868975Y-79309180D01*
X160748129Y-79390723D01*
X160626735Y-79471465D01*
X160625299Y-79473604D01*
X160623164Y-79475045D01*
X146704164Y-93521045D01*
X146623287Y-93643285D01*
X146541852Y-93765161D01*
X146541509Y-93766886D01*
X146540539Y-93768352D01*
X146512607Y-93912185D01*
X146484000Y-94056000D01*
X146484000Y-96425018D01*
X146462117Y-96372057D01*
X146199327Y-96108808D01*
X145855799Y-95966162D01*
X145483833Y-95965838D01*
X145140057Y-96107883D01*
X144876808Y-96370673D01*
X144818789Y-96510398D01*
X144780173Y-96568191D01*
X144766732Y-96635765D01*
X144734162Y-96714201D01*
X144734087Y-96799878D01*
X144709000Y-96926000D01*
X144709000Y-97713750D01*
X144558250Y-97563000D01*
X144442690Y-97563000D01*
X144209301Y-97659673D01*
X144030673Y-97838302D01*
X143934000Y-98071691D01*
X143934000Y-98662250D01*
X144092750Y-98821000D01*
X144709000Y-98821000D01*
X144709000Y-98948000D01*
X144721560Y-99011143D01*
X144721560Y-99698000D01*
X144768537Y-99940123D01*
X144908327Y-100152927D01*
X145035563Y-100238813D01*
X145129750Y-100333000D01*
X145245310Y-100333000D01*
X145265424Y-100324669D01*
X145369000Y-100345440D01*
X145919000Y-100345440D01*
X146046065Y-100320787D01*
X146169000Y-100345440D01*
X146719000Y-100345440D01*
X146846065Y-100320787D01*
X146969000Y-100345440D01*
X147519000Y-100345440D01*
X147646065Y-100320787D01*
X147769000Y-100345440D01*
X148319000Y-100345440D01*
X148446065Y-100320787D01*
X148569000Y-100345440D01*
X149119000Y-100345440D01*
X149246065Y-100320787D01*
X149369000Y-100345440D01*
X149919000Y-100345440D01*
X150046065Y-100320787D01*
X150169000Y-100345440D01*
X150719000Y-100345440D01*
X150846065Y-100320787D01*
X150969000Y-100345440D01*
X151519000Y-100345440D01*
X151646065Y-100320787D01*
X151769000Y-100345440D01*
X152319000Y-100345440D01*
X152423687Y-100325129D01*
X152442690Y-100333000D01*
X152558250Y-100333000D01*
X152653410Y-100237840D01*
X152773927Y-100158673D01*
X152916377Y-99947640D01*
X152966440Y-99698000D01*
X152966440Y-99011143D01*
X152979000Y-98948000D01*
X152979000Y-98821000D01*
X153595250Y-98821000D01*
X153754000Y-98662250D01*
X153754000Y-98071691D01*
X153657327Y-97838302D01*
X153478699Y-97659673D01*
X153245310Y-97563000D01*
X153129750Y-97563000D01*
X152979000Y-97713750D01*
X152979000Y-97053000D01*
X152954088Y-96927760D01*
X152954162Y-96842833D01*
X152921444Y-96763650D01*
X152907827Y-96695191D01*
X152869387Y-96637661D01*
X152812117Y-96499057D01*
X152705232Y-96391986D01*
X152705145Y-96391855D01*
X152680436Y-96367146D01*
X152646076Y-96332726D01*
X152841802Y-96137000D01*
X159838537Y-96137000D01*
X159870673Y-96169192D01*
X160214201Y-96311838D01*
X160586167Y-96312162D01*
X160929943Y-96170117D01*
X161193192Y-95907327D01*
X161335838Y-95563799D01*
X161336162Y-95191833D01*
X161194117Y-94848057D01*
X160931327Y-94584808D01*
X160587799Y-94442162D01*
X160215833Y-94441838D01*
X159872057Y-94583883D01*
X159838882Y-94617000D01*
X152583802Y-94617000D01*
X153476802Y-93724000D01*
X159203537Y-93724000D01*
X159235673Y-93756192D01*
X159579201Y-93898838D01*
X159951167Y-93899162D01*
X160294943Y-93757117D01*
X160558192Y-93494327D01*
X160700838Y-93150799D01*
X160701162Y-92778833D01*
X160559117Y-92435057D01*
X160296327Y-92171808D01*
X159952799Y-92029162D01*
X159580833Y-92028838D01*
X159237057Y-92170883D01*
X159203882Y-92204000D01*
X154061228Y-92204000D01*
X157777441Y-88686089D01*
X160072743Y-88686089D01*
X160298344Y-89232086D01*
X160715717Y-89650188D01*
X161261319Y-89876742D01*
X161852089Y-89877257D01*
X162398086Y-89651656D01*
X162816188Y-89234283D01*
X163042742Y-88688681D01*
X163043257Y-88097911D01*
X162817656Y-87551914D01*
X162400283Y-87133812D01*
X161854681Y-86907258D01*
X161263911Y-86906743D01*
X160717914Y-87132344D01*
X160299812Y-87549717D01*
X160073258Y-88095319D01*
X160072743Y-88686089D01*
X157777441Y-88686089D01*
X161846670Y-84834000D01*
X174391890Y-84834000D01*
X174343560Y-85075000D01*
X174343560Y-86375000D01*
X174390537Y-86617123D01*
X174530327Y-86829927D01*
X174741360Y-86972377D01*
X174991000Y-87022440D01*
X176291000Y-87022440D01*
X176533123Y-86975463D01*
X176745927Y-86835673D01*
X176888377Y-86624640D01*
X176888502Y-86624016D01*
X177421590Y-86624016D01*
X177477271Y-86854611D01*
X177960078Y-87022622D01*
X178470428Y-86993083D01*
X178804729Y-86854611D01*
X178860410Y-86624016D01*
X178141000Y-85904605D01*
X177421590Y-86624016D01*
X176888502Y-86624016D01*
X176938440Y-86375000D01*
X176938440Y-86212615D01*
X177011389Y-86388729D01*
X177241984Y-86444410D01*
X177961395Y-85725000D01*
X177947252Y-85710858D01*
X178126858Y-85531252D01*
X178141000Y-85545395D01*
X178155142Y-85531252D01*
X178334748Y-85710858D01*
X178320605Y-85725000D01*
X179040016Y-86444410D01*
X179270611Y-86388729D01*
X179438622Y-85905922D01*
X179409083Y-85395572D01*
X179270611Y-85061271D01*
X179040018Y-85005590D01*
X179155478Y-84890130D01*
X179099348Y-84834000D01*
X184059035Y-84834000D01*
X186848804Y-86577606D01*
X190239207Y-89968009D01*
X190001860Y-98512486D01*
X189994000Y-98552000D01*
X189994000Y-102047198D01*
X189677198Y-102364000D01*
X189538463Y-102364000D01*
X189506327Y-102331808D01*
X189162799Y-102189162D01*
X188790833Y-102188838D01*
X188447057Y-102330883D01*
X188183808Y-102593673D01*
X188041162Y-102937201D01*
X188040838Y-103309167D01*
X188182883Y-103652943D01*
X188445673Y-103916192D01*
X188789201Y-104058838D01*
X189161167Y-104059162D01*
X189504943Y-103917117D01*
X189538118Y-103884000D01*
X189992000Y-103884000D01*
X190282839Y-103826148D01*
X190529401Y-103661401D01*
X191137000Y-103053802D01*
X191137000Y-105349198D01*
X189217320Y-107268878D01*
X189171833Y-107268838D01*
X188828057Y-107410883D01*
X188564808Y-107673673D01*
X188422162Y-108017201D01*
X188421838Y-108389167D01*
X188563883Y-108732943D01*
X188826673Y-108996192D01*
X189170201Y-109138838D01*
X189542167Y-109139162D01*
X189885943Y-108997117D01*
X190149192Y-108734327D01*
X190291838Y-108390799D01*
X190291879Y-108343923D01*
X192434401Y-106201401D01*
X192599148Y-105954840D01*
X192642113Y-105738839D01*
X192657000Y-105664000D01*
X192657000Y-97627368D01*
X192853201Y-97708838D01*
X193225167Y-97709162D01*
X193568943Y-97567117D01*
X193832192Y-97304327D01*
X193974838Y-96960799D01*
X193975162Y-96588833D01*
X193833117Y-96245057D01*
X193807667Y-96219562D01*
X193926929Y-87513410D01*
X193925966Y-87508195D01*
X193926999Y-87503000D01*
X193899078Y-87362630D01*
X193873066Y-87221806D01*
X193870182Y-87217359D01*
X193869148Y-87212160D01*
X193789613Y-87093128D01*
X193711712Y-86973010D01*
X193707345Y-86970005D01*
X193704401Y-86965599D01*
X189588783Y-82849981D01*
X189796167Y-82850162D01*
X190139943Y-82708117D01*
X190266173Y-82582107D01*
X190968493Y-83285655D01*
X191948373Y-83692536D01*
X193009372Y-83693462D01*
X193989961Y-83288291D01*
X194740855Y-82538707D01*
X194895000Y-82167484D01*
X194895000Y-130125119D01*
X194743491Y-129758439D01*
X193993907Y-129007545D01*
X193014027Y-128600664D01*
X191953028Y-128599738D01*
X190972439Y-129004909D01*
X190221545Y-129754493D01*
X189814664Y-130734373D01*
X189813738Y-131795372D01*
X190218909Y-132775961D01*
X190968493Y-133526855D01*
X191033866Y-133554000D01*
X110829954Y-133554000D01*
X111135161Y-133427891D01*
X111886055Y-132678307D01*
X112292936Y-131698427D01*
X112293862Y-130637428D01*
X111888691Y-129656839D01*
X111139107Y-128905945D01*
X110372205Y-128587500D01*
X139370060Y-128587500D01*
X139370060Y-129984500D01*
X139417037Y-130226623D01*
X139556827Y-130439427D01*
X139767860Y-130581877D01*
X140017500Y-130631940D01*
X141414500Y-130631940D01*
X141656623Y-130584963D01*
X141869427Y-130445173D01*
X142011877Y-130234140D01*
X142061940Y-129984500D01*
X142061940Y-129550086D01*
X154622269Y-129550086D01*
X154824854Y-130040380D01*
X155199647Y-130415827D01*
X155689587Y-130619268D01*
X156220086Y-130619731D01*
X156710380Y-130417146D01*
X157085827Y-130042353D01*
X157289268Y-129552413D01*
X157289731Y-129021914D01*
X157087146Y-128531620D01*
X156712353Y-128156173D01*
X156222413Y-127952732D01*
X155691914Y-127952269D01*
X155201620Y-128154854D01*
X154826173Y-128529647D01*
X154622732Y-129019587D01*
X154622269Y-129550086D01*
X142061940Y-129550086D01*
X142061940Y-128587500D01*
X142014963Y-128345377D01*
X141875173Y-128132573D01*
X141664140Y-127990123D01*
X141414500Y-127940060D01*
X140017500Y-127940060D01*
X139775377Y-127987037D01*
X139562573Y-128126827D01*
X139420123Y-128337860D01*
X139370060Y-128587500D01*
X110372205Y-128587500D01*
X110159227Y-128499064D01*
X109098228Y-128498138D01*
X108117639Y-128903309D01*
X107366745Y-129652893D01*
X107238000Y-129962946D01*
X107238000Y-123737000D01*
X119406560Y-123737000D01*
X119406560Y-125437000D01*
X119453537Y-125679123D01*
X119593327Y-125891927D01*
X119804360Y-126034377D01*
X120054000Y-126084440D01*
X121754000Y-126084440D01*
X121996123Y-126037463D01*
X122208927Y-125897673D01*
X122351377Y-125686640D01*
X122401440Y-125437000D01*
X122401440Y-123737000D01*
X122354463Y-123494877D01*
X122214673Y-123282073D01*
X122003640Y-123139623D01*
X121754000Y-123089560D01*
X120054000Y-123089560D01*
X119811877Y-123136537D01*
X119599073Y-123276327D01*
X119456623Y-123487360D01*
X119406560Y-123737000D01*
X107238000Y-123737000D01*
X107238000Y-122600188D01*
X139961417Y-122600188D01*
X140023071Y-122835800D01*
X140523480Y-123011927D01*
X141053199Y-122983148D01*
X141408929Y-122835800D01*
X141470583Y-122600188D01*
X140716000Y-121845605D01*
X139961417Y-122600188D01*
X107238000Y-122600188D01*
X107238000Y-121473480D01*
X139370073Y-121473480D01*
X139398852Y-122003199D01*
X139546200Y-122358929D01*
X139781812Y-122420583D01*
X140536395Y-121666000D01*
X140895605Y-121666000D01*
X141650188Y-122420583D01*
X141885800Y-122358929D01*
X142036738Y-121930086D01*
X154622269Y-121930086D01*
X154824854Y-122420380D01*
X155199647Y-122795827D01*
X155689587Y-122999268D01*
X156220086Y-122999731D01*
X156710380Y-122797146D01*
X157085827Y-122422353D01*
X157289268Y-121932413D01*
X157289731Y-121401914D01*
X157087146Y-120911620D01*
X156712353Y-120536173D01*
X156222413Y-120332732D01*
X155691914Y-120332269D01*
X155201620Y-120534854D01*
X154826173Y-120909647D01*
X154622732Y-121399587D01*
X154622269Y-121930086D01*
X142036738Y-121930086D01*
X142061927Y-121858520D01*
X142033148Y-121328801D01*
X141885800Y-120973071D01*
X141650188Y-120911417D01*
X140895605Y-121666000D01*
X140536395Y-121666000D01*
X140536395Y-121666000D01*
X139781812Y-120911417D01*
X139546200Y-120973071D01*
X139370073Y-121473480D01*
X107238000Y-121473480D01*
X107238000Y-120731812D01*
X139961417Y-120731812D01*
X140716000Y-121486395D01*
X141470583Y-120731812D01*
X141408929Y-120496200D01*
X140908520Y-120320073D01*
X140378801Y-120348852D01*
X140023071Y-120496200D01*
X139961417Y-120731812D01*
X107238000Y-120731812D01*
X107238000Y-116332000D01*
X128012041Y-116332000D01*
X128126115Y-116905489D01*
X128450971Y-117391670D01*
X128765752Y-117602000D01*
X128450971Y-117812330D01*
X128126115Y-118298511D01*
X128012041Y-118872000D01*
X128126115Y-119445489D01*
X128450971Y-119931670D01*
X128937152Y-120256526D01*
X129510641Y-120370600D01*
X129569359Y-120370600D01*
X130142848Y-120256526D01*
X130629029Y-119931670D01*
X130810000Y-119660828D01*
X130990971Y-119931670D01*
X131477152Y-120256526D01*
X132050641Y-120370600D01*
X132109359Y-120370600D01*
X132682848Y-120256526D01*
X133169029Y-119931670D01*
X133493885Y-119445489D01*
X133607959Y-118872000D01*
X133493885Y-118298511D01*
X133169029Y-117812330D01*
X133131370Y-117787167D01*
X134319838Y-117787167D01*
X134461883Y-118130943D01*
X134724673Y-118394192D01*
X135068201Y-118536838D01*
X135440167Y-118537162D01*
X135783943Y-118395117D01*
X135817118Y-118362000D01*
X139319000Y-118362000D01*
X139609839Y-118304148D01*
X139856401Y-118139401D01*
X140743052Y-117252750D01*
X144384000Y-117252750D01*
X144384000Y-117743310D01*
X144480673Y-117976699D01*
X144659302Y-118155327D01*
X144892691Y-118252000D01*
X145383250Y-118252000D01*
X145542000Y-118093250D01*
X145542000Y-117094000D01*
X144542750Y-117094000D01*
X144384000Y-117252750D01*
X140743052Y-117252750D01*
X141805112Y-116190690D01*
X144384000Y-116190690D01*
X144384000Y-116681250D01*
X144542750Y-116840000D01*
X145542000Y-116840000D01*
X145542000Y-115840750D01*
X145383250Y-115682000D01*
X144892691Y-115682000D01*
X144659302Y-115778673D01*
X144480673Y-115957301D01*
X144384000Y-116190690D01*
X141805112Y-116190690D01*
X146181401Y-111814401D01*
X146316998Y-111611466D01*
X146316998Y-111733000D01*
X146359000Y-111733000D01*
X146359000Y-114477995D01*
X146358999Y-114478000D01*
X146404432Y-114706400D01*
X146426367Y-114816675D01*
X146590287Y-115062000D01*
X146618210Y-115103790D01*
X146731256Y-115216835D01*
X146780883Y-115336943D01*
X147043673Y-115600192D01*
X147387201Y-115742838D01*
X147759167Y-115743162D01*
X148102943Y-115601117D01*
X148137348Y-115566771D01*
X148145660Y-115579210D01*
X148214367Y-115682039D01*
X147914519Y-115681777D01*
X147442057Y-115876995D01*
X147080265Y-116238155D01*
X146954000Y-116542235D01*
X146954000Y-116190690D01*
X146857327Y-115957301D01*
X146678698Y-115778673D01*
X146445309Y-115682000D01*
X145954750Y-115682000D01*
X145796000Y-115840750D01*
X145796000Y-116840000D01*
X145816000Y-116840000D01*
X145816000Y-117094000D01*
X145796000Y-117094000D01*
X145796000Y-118093250D01*
X145954750Y-118252000D01*
X146445309Y-118252000D01*
X146678698Y-118155327D01*
X146857327Y-117976699D01*
X146954000Y-117743310D01*
X146954000Y-117391433D01*
X147078995Y-117693943D01*
X147440155Y-118055735D01*
X147912276Y-118251777D01*
X148423481Y-118252223D01*
X148895943Y-118057005D01*
X149257735Y-117695845D01*
X149453777Y-117223724D01*
X149453977Y-116994491D01*
X149456673Y-116997192D01*
X149800201Y-117139838D01*
X150172167Y-117140162D01*
X150515943Y-116998117D01*
X150779192Y-116735327D01*
X150912711Y-116413778D01*
X151130000Y-116457000D01*
X160854537Y-116457000D01*
X160886673Y-116489192D01*
X161230201Y-116631838D01*
X161602167Y-116632162D01*
X161945943Y-116490117D01*
X162209192Y-116227327D01*
X162351838Y-115883799D01*
X162352162Y-115511833D01*
X162210117Y-115168057D01*
X161947327Y-114904808D01*
X161603799Y-114762162D01*
X161231833Y-114761838D01*
X161209033Y-114771259D01*
X161209113Y-114679000D01*
X162499198Y-114679000D01*
X162562000Y-114741802D01*
X162562000Y-119380000D01*
X162619852Y-119670839D01*
X162784599Y-119917401D01*
X164308599Y-121441401D01*
X164555160Y-121606148D01*
X164603414Y-121615746D01*
X164846000Y-121664000D01*
X167603547Y-121664000D01*
X167767778Y-121909789D01*
X168163199Y-122174000D01*
X167767778Y-122438211D01*
X167459441Y-122899671D01*
X167351167Y-123444000D01*
X167459441Y-123988329D01*
X167767778Y-124449789D01*
X168229238Y-124758126D01*
X168773567Y-124866400D01*
X169554433Y-124866400D01*
X170098762Y-124758126D01*
X170560222Y-124449789D01*
X170868559Y-123988329D01*
X170976833Y-123444000D01*
X170868559Y-122899671D01*
X170560222Y-122438211D01*
X170164801Y-122174000D01*
X170560222Y-121909789D01*
X170868559Y-121448329D01*
X170976833Y-120904000D01*
X170875387Y-120394000D01*
X177485198Y-120394000D01*
X178532599Y-121441401D01*
X178779160Y-121606148D01*
X179070000Y-121664000D01*
X182843547Y-121664000D01*
X183007778Y-121909789D01*
X183403199Y-122174000D01*
X183007778Y-122438211D01*
X182699441Y-122899671D01*
X182591167Y-123444000D01*
X182699441Y-123988329D01*
X183007778Y-124449789D01*
X183469238Y-124758126D01*
X184013567Y-124866400D01*
X184794433Y-124866400D01*
X185338762Y-124758126D01*
X185800222Y-124449789D01*
X186108559Y-123988329D01*
X186216833Y-123444000D01*
X186108559Y-122899671D01*
X185800222Y-122438211D01*
X185404801Y-122174000D01*
X185800222Y-121909789D01*
X186108559Y-121448329D01*
X186216833Y-120904000D01*
X186108559Y-120359671D01*
X185800222Y-119898211D01*
X185404801Y-119634000D01*
X185800222Y-119369789D01*
X186108559Y-118908329D01*
X186216833Y-118364000D01*
X186108559Y-117819671D01*
X185800222Y-117358211D01*
X185404801Y-117094000D01*
X185800222Y-116829789D01*
X186108559Y-116368329D01*
X186216833Y-115824000D01*
X186108559Y-115279671D01*
X185800222Y-114818211D01*
X185404801Y-114554000D01*
X185800222Y-114289789D01*
X186108559Y-113828329D01*
X186216833Y-113284000D01*
X186108559Y-112739671D01*
X185800222Y-112278211D01*
X185404801Y-112014000D01*
X185800222Y-111749789D01*
X186108559Y-111288329D01*
X186216833Y-110744000D01*
X186108559Y-110199671D01*
X185800222Y-109738211D01*
X185404801Y-109474000D01*
X185800222Y-109209789D01*
X186108559Y-108748329D01*
X186216833Y-108204000D01*
X186108559Y-107659671D01*
X185800222Y-107198211D01*
X185404801Y-106934000D01*
X185800222Y-106669789D01*
X186108559Y-106208329D01*
X186216833Y-105664000D01*
X186108559Y-105119671D01*
X185800222Y-104658211D01*
X185404801Y-104394000D01*
X185800222Y-104129789D01*
X186108559Y-103668329D01*
X186216833Y-103124000D01*
X186108559Y-102579671D01*
X185800222Y-102118211D01*
X185404801Y-101854000D01*
X185800222Y-101589789D01*
X186108559Y-101128329D01*
X186216833Y-100584000D01*
X186108559Y-100039671D01*
X185800222Y-99578211D01*
X185404801Y-99314000D01*
X185800222Y-99049789D01*
X186108559Y-98588329D01*
X186216833Y-98044000D01*
X186108559Y-97499671D01*
X185800222Y-97038211D01*
X185404801Y-96774000D01*
X185800222Y-96509789D01*
X186108559Y-96048329D01*
X186216833Y-95504000D01*
X186108559Y-94959671D01*
X185800222Y-94498211D01*
X185404801Y-94234000D01*
X185800222Y-93969789D01*
X186108559Y-93508329D01*
X186216833Y-92964000D01*
X186108559Y-92419671D01*
X185800222Y-91958211D01*
X185405170Y-91694246D01*
X185421262Y-91689525D01*
X185855191Y-91339986D01*
X186122327Y-90850996D01*
X186139010Y-90771060D01*
X186016852Y-90551000D01*
X184531000Y-90551000D01*
X184531000Y-90571000D01*
X184277000Y-90571000D01*
X184277000Y-90551000D01*
X182791148Y-90551000D01*
X182668990Y-90771060D01*
X182685673Y-90850996D01*
X182952809Y-91339986D01*
X183386738Y-91689525D01*
X183402830Y-91694246D01*
X183007778Y-91958211D01*
X182699441Y-92419671D01*
X182591167Y-92964000D01*
X182699441Y-93508329D01*
X183007778Y-93969789D01*
X183403199Y-94234000D01*
X183007778Y-94498211D01*
X182699441Y-94959671D01*
X182591167Y-95504000D01*
X182699441Y-96048329D01*
X183007778Y-96509789D01*
X183403199Y-96774000D01*
X183007778Y-97038211D01*
X182699441Y-97499671D01*
X182591167Y-98044000D01*
X182699441Y-98588329D01*
X183007778Y-99049789D01*
X183403199Y-99314000D01*
X183007778Y-99578211D01*
X182699441Y-100039671D01*
X182591167Y-100584000D01*
X182699441Y-101128329D01*
X183007778Y-101589789D01*
X183403199Y-101854000D01*
X183007778Y-102118211D01*
X182699441Y-102579671D01*
X182591167Y-103124000D01*
X182699441Y-103668329D01*
X183007778Y-104129789D01*
X183403199Y-104394000D01*
X183007778Y-104658211D01*
X182699441Y-105119671D01*
X182591167Y-105664000D01*
X182699441Y-106208329D01*
X183007778Y-106669789D01*
X183403199Y-106934000D01*
X183007778Y-107198211D01*
X182699441Y-107659671D01*
X182591167Y-108204000D01*
X182699441Y-108748329D01*
X183007778Y-109209789D01*
X183403199Y-109474000D01*
X183007778Y-109738211D01*
X182699441Y-110199671D01*
X182591167Y-110744000D01*
X182699441Y-111288329D01*
X183007778Y-111749789D01*
X183403199Y-112014000D01*
X183007778Y-112278211D01*
X182843547Y-112524000D01*
X179384802Y-112524000D01*
X178337401Y-111476599D01*
X178090839Y-111311852D01*
X177800000Y-111254000D01*
X170875387Y-111254000D01*
X170976833Y-110744000D01*
X170868559Y-110199671D01*
X170560222Y-109738211D01*
X170164801Y-109474000D01*
X170560222Y-109209789D01*
X170868559Y-108748329D01*
X170976833Y-108204000D01*
X170868559Y-107659671D01*
X170560222Y-107198211D01*
X170164801Y-106934000D01*
X170560222Y-106669789D01*
X170868559Y-106208329D01*
X170976833Y-105664000D01*
X170868559Y-105119671D01*
X170560222Y-104658211D01*
X170164801Y-104394000D01*
X170560222Y-104129789D01*
X170868559Y-103668329D01*
X170976833Y-103124000D01*
X170868559Y-102579671D01*
X170560222Y-102118211D01*
X170164801Y-101854000D01*
X170560222Y-101589789D01*
X170868559Y-101128329D01*
X170976833Y-100584000D01*
X170868559Y-100039671D01*
X170560222Y-99578211D01*
X170164801Y-99314000D01*
X170560222Y-99049789D01*
X170868559Y-98588329D01*
X170976833Y-98044000D01*
X170868559Y-97499671D01*
X170560222Y-97038211D01*
X170164801Y-96774000D01*
X170560222Y-96509789D01*
X170868559Y-96048329D01*
X170976833Y-95504000D01*
X170868559Y-94959671D01*
X170560222Y-94498211D01*
X170164801Y-94234000D01*
X170560222Y-93969789D01*
X170868559Y-93508329D01*
X170976833Y-92964000D01*
X170868559Y-92419671D01*
X170560222Y-91958211D01*
X170387986Y-91843127D01*
X170549123Y-91811863D01*
X170761927Y-91672073D01*
X170904377Y-91461040D01*
X170954440Y-91211400D01*
X170954440Y-90076940D01*
X182668990Y-90076940D01*
X182791148Y-90297000D01*
X184277000Y-90297000D01*
X184277000Y-89001600D01*
X184531000Y-89001600D01*
X184531000Y-90297000D01*
X186016852Y-90297000D01*
X186139010Y-90076940D01*
X186122327Y-89997004D01*
X185855191Y-89508014D01*
X185421262Y-89158475D01*
X184886600Y-89001600D01*
X184531000Y-89001600D01*
X184277000Y-89001600D01*
X184277000Y-89001600D01*
X183921400Y-89001600D01*
X183386738Y-89158475D01*
X182952809Y-89508014D01*
X182685673Y-89997004D01*
X182668990Y-90076940D01*
X170954440Y-90076940D01*
X170954440Y-89636600D01*
X170907463Y-89394477D01*
X170767673Y-89181673D01*
X170556640Y-89039223D01*
X170307000Y-88989160D01*
X168021000Y-88989160D01*
X167778877Y-89036137D01*
X167566073Y-89175927D01*
X167423623Y-89386960D01*
X167373560Y-89636600D01*
X167373560Y-89664000D01*
X165354000Y-89664000D01*
X165063161Y-89721852D01*
X164816599Y-89886599D01*
X163038599Y-91664599D01*
X162873852Y-91911161D01*
X162816000Y-92202000D01*
X162816000Y-95697198D01*
X157825198Y-100688000D01*
X157434802Y-100688000D01*
X157619680Y-100503122D01*
X157665167Y-100503162D01*
X158008943Y-100361117D01*
X158272192Y-100098327D01*
X158414838Y-99754799D01*
X158415162Y-99382833D01*
X158273117Y-99039057D01*
X158010327Y-98775808D01*
X157666799Y-98633162D01*
X157294833Y-98632838D01*
X156951057Y-98774883D01*
X156687808Y-99037673D01*
X156545162Y-99381201D01*
X156545121Y-99428077D01*
X156085198Y-99888000D01*
X155710121Y-99888000D01*
X155543640Y-99775623D01*
X155294000Y-99725560D01*
X153794000Y-99725560D01*
X153754000Y-99733321D01*
X153754000Y-99233750D01*
X153595250Y-99075000D01*
X152971000Y-99075000D01*
X152971000Y-100174250D01*
X153129750Y-100333000D01*
X153154582Y-100333000D01*
X153146560Y-100373000D01*
X153146560Y-100923000D01*
X153171213Y-101050065D01*
X153146560Y-101173000D01*
X153146560Y-101723000D01*
X153171213Y-101850065D01*
X153146560Y-101973000D01*
X153146560Y-102523000D01*
X153171213Y-102650065D01*
X153146560Y-102773000D01*
X153146560Y-103323000D01*
X153171213Y-103450065D01*
X153146560Y-103573000D01*
X153146560Y-104123000D01*
X153171213Y-104250065D01*
X153146560Y-104373000D01*
X153146560Y-104923000D01*
X153171213Y-105050065D01*
X153146560Y-105173000D01*
X153146560Y-105723000D01*
X153171213Y-105850065D01*
X153146560Y-105973000D01*
X153146560Y-106523000D01*
X153171213Y-106650065D01*
X153146560Y-106773000D01*
X153146560Y-107323000D01*
X153166871Y-107427687D01*
X153159000Y-107446690D01*
X153159000Y-107562250D01*
X153254160Y-107657410D01*
X153295931Y-107720998D01*
X153159000Y-107720998D01*
X153159000Y-107763000D01*
X147892000Y-107763000D01*
X147553325Y-107830367D01*
X147266210Y-108022210D01*
X147266208Y-108022213D01*
X146618210Y-108670210D01*
X146426367Y-108957325D01*
X146426367Y-108957326D01*
X146425238Y-108963000D01*
X146316998Y-108963000D01*
X146316998Y-109100767D01*
X146252437Y-109057187D01*
X146158250Y-108963000D01*
X146042690Y-108963000D01*
X146022576Y-108971331D01*
X145919000Y-108950560D01*
X145604000Y-108950560D01*
X145604000Y-107692802D01*
X148221680Y-105075122D01*
X148267167Y-105075162D01*
X148610943Y-104933117D01*
X148874192Y-104670327D01*
X149016838Y-104326799D01*
X149017162Y-103954833D01*
X148875117Y-103611057D01*
X148612327Y-103347808D01*
X148268799Y-103205162D01*
X147896833Y-103204838D01*
X147553057Y-103346883D01*
X147289808Y-103609673D01*
X147147162Y-103953201D01*
X147147121Y-104000077D01*
X144520681Y-106626517D01*
X144541440Y-106523000D01*
X144541440Y-105973000D01*
X144521129Y-105868313D01*
X144529000Y-105849310D01*
X144529000Y-105733750D01*
X144433840Y-105638590D01*
X144354673Y-105518073D01*
X144250931Y-105448046D01*
X144348927Y-105383673D01*
X144434813Y-105256437D01*
X144529000Y-105162250D01*
X144529000Y-105046690D01*
X144520669Y-105026576D01*
X144541440Y-104923000D01*
X144541440Y-104373000D01*
X144516787Y-104245935D01*
X144541440Y-104123000D01*
X144541440Y-103573000D01*
X144516787Y-103445935D01*
X144541440Y-103323000D01*
X144541440Y-102773000D01*
X144516787Y-102645935D01*
X144541440Y-102523000D01*
X144541440Y-101973000D01*
X144521129Y-101868313D01*
X144529000Y-101849310D01*
X144529000Y-101733750D01*
X144433840Y-101638590D01*
X144354673Y-101518073D01*
X144250931Y-101448046D01*
X144348927Y-101383673D01*
X144434813Y-101256437D01*
X144529000Y-101162250D01*
X144529000Y-101046690D01*
X144520669Y-101026576D01*
X144541440Y-100923000D01*
X144541440Y-100373000D01*
X144533679Y-100333000D01*
X144558250Y-100333000D01*
X144717000Y-100174250D01*
X144717000Y-99075000D01*
X144092750Y-99075000D01*
X143934000Y-99233750D01*
X143934000Y-99733582D01*
X143894000Y-99725560D01*
X142394000Y-99725560D01*
X142151877Y-99772537D01*
X141976106Y-99888000D01*
X141348802Y-99888000D01*
X141095000Y-99634198D01*
X141095000Y-95564802D01*
X141665802Y-94994000D01*
X142312537Y-94994000D01*
X142344673Y-95026192D01*
X142688201Y-95168838D01*
X143060167Y-95169162D01*
X143403943Y-95027117D01*
X143667192Y-94764327D01*
X143809838Y-94420799D01*
X143810162Y-94048833D01*
X143668117Y-93705057D01*
X143405327Y-93441808D01*
X143061799Y-93299162D01*
X142689833Y-93298838D01*
X142346057Y-93440883D01*
X142312882Y-93474000D01*
X141351000Y-93474000D01*
X141060161Y-93531852D01*
X140813599Y-93696599D01*
X139797599Y-94712599D01*
X139632852Y-94959161D01*
X139575000Y-95250000D01*
X139575000Y-99949000D01*
X139632852Y-100239839D01*
X139797599Y-100486401D01*
X140496599Y-101185401D01*
X140743160Y-101350148D01*
X141034000Y-101408000D01*
X141977879Y-101408000D01*
X142037069Y-101447954D01*
X141976106Y-101488000D01*
X140021219Y-101488000D01*
X139849327Y-101315808D01*
X139505799Y-101173162D01*
X139133833Y-101172838D01*
X138790057Y-101314883D01*
X138553000Y-101551527D01*
X138553000Y-94727580D01*
X144003579Y-89277000D01*
X145067351Y-89277000D01*
X145107537Y-89484123D01*
X145247327Y-89696927D01*
X145458360Y-89839377D01*
X145708000Y-89889440D01*
X147408000Y-89889440D01*
X147650123Y-89842463D01*
X147862927Y-89702673D01*
X148005377Y-89491640D01*
X148055440Y-89242000D01*
X148055440Y-87542000D01*
X148008463Y-87299877D01*
X147868673Y-87087073D01*
X147657640Y-86944623D01*
X147408000Y-86894560D01*
X145708000Y-86894560D01*
X145465877Y-86941537D01*
X145253073Y-87081327D01*
X145110623Y-87292360D01*
X145067579Y-87507000D01*
X143637005Y-87507000D01*
X143637000Y-87506999D01*
X143354516Y-87563190D01*
X143298325Y-87574367D01*
X143011210Y-87766210D01*
X143011208Y-87766213D01*
X137042210Y-93735210D01*
X136850367Y-94022325D01*
X136850367Y-94022326D01*
X136782999Y-94361000D01*
X136783000Y-94361005D01*
X136783000Y-101983634D01*
X136733000Y-102235000D01*
X136733000Y-103632000D01*
X136804173Y-103989809D01*
X137006855Y-104293145D01*
X138022855Y-105309145D01*
X138290531Y-105488000D01*
X135941000Y-105488000D01*
X135650161Y-105545852D01*
X135403599Y-105710598D01*
X134717599Y-106396599D01*
X134552852Y-106643161D01*
X134495000Y-106934000D01*
X134495000Y-111125000D01*
X134552852Y-111415839D01*
X134717599Y-111662401D01*
X135733599Y-112678401D01*
X135980161Y-112843148D01*
X136271000Y-112901000D01*
X139518537Y-112901000D01*
X139550673Y-112933192D01*
X139894201Y-113075838D01*
X140266167Y-113076162D01*
X140609943Y-112934117D01*
X140873192Y-112671327D01*
X141015838Y-112327799D01*
X141015961Y-112186930D01*
X141282167Y-112187162D01*
X141625943Y-112045117D01*
X141889192Y-111782327D01*
X142031838Y-111438799D01*
X142032162Y-111066833D01*
X141890117Y-110723057D01*
X141627327Y-110459808D01*
X141283799Y-110317162D01*
X140911833Y-110316838D01*
X140568057Y-110458883D01*
X140534882Y-110492000D01*
X137220802Y-110492000D01*
X136904000Y-110175198D01*
X136904000Y-109270111D01*
X137137673Y-109504192D01*
X137481201Y-109646838D01*
X137853167Y-109647162D01*
X138196943Y-109505117D01*
X138294230Y-109408000D01*
X141977879Y-109408000D01*
X142144360Y-109520377D01*
X142394000Y-109570440D01*
X143894000Y-109570440D01*
X143928426Y-109563761D01*
X143921560Y-109598000D01*
X143921560Y-111098000D01*
X143968537Y-111340123D01*
X144108327Y-111552927D01*
X144218740Y-111627458D01*
X139004198Y-116842000D01*
X135817463Y-116842000D01*
X135785327Y-116809808D01*
X135441799Y-116667162D01*
X135069833Y-116666838D01*
X134726057Y-116808883D01*
X134462808Y-117071673D01*
X134320162Y-117415201D01*
X134319838Y-117787167D01*
X133131370Y-117787167D01*
X132854248Y-117602000D01*
X133169029Y-117391670D01*
X133493885Y-116905489D01*
X133607959Y-116332000D01*
X133493885Y-115758511D01*
X133169029Y-115272330D01*
X132845772Y-115056336D01*
X132968490Y-114998821D01*
X133362688Y-114566947D01*
X133534958Y-114151026D01*
X133413817Y-113919000D01*
X132207000Y-113919000D01*
X132207000Y-113939000D01*
X131953000Y-113939000D01*
X131953000Y-113919000D01*
X131933000Y-113919000D01*
X131933000Y-113665000D01*
X131953000Y-113665000D01*
X131953000Y-112457531D01*
X132207000Y-112457531D01*
X132207000Y-113665000D01*
X133413817Y-113665000D01*
X133534958Y-113432974D01*
X133362688Y-113017053D01*
X132968490Y-112585179D01*
X132439027Y-112337032D01*
X132207000Y-112457531D01*
X131953000Y-112457531D01*
X131953000Y-112457531D01*
X131720973Y-112337032D01*
X131191510Y-112585179D01*
X131020746Y-112772264D01*
X131004063Y-112686277D01*
X130864273Y-112473473D01*
X130653240Y-112331023D01*
X130403600Y-112280960D01*
X128676400Y-112280960D01*
X128434277Y-112327937D01*
X128221473Y-112467727D01*
X128079023Y-112678760D01*
X128028960Y-112928400D01*
X128028960Y-114655600D01*
X128075937Y-114897723D01*
X128215727Y-115110527D01*
X128426760Y-115252977D01*
X128467660Y-115261179D01*
X128450971Y-115272330D01*
X128126115Y-115758511D01*
X128012041Y-116332000D01*
X107238000Y-116332000D01*
X107238000Y-109262591D01*
X107615646Y-109262591D01*
X107917209Y-109992429D01*
X108475114Y-110551309D01*
X109204425Y-110854145D01*
X109994111Y-110854834D01*
X110535932Y-110630958D01*
X120039647Y-110630958D01*
X120119920Y-110882259D01*
X120675279Y-111083718D01*
X121265458Y-111057315D01*
X121688080Y-110882259D01*
X121768353Y-110630958D01*
X120904000Y-109766605D01*
X120039647Y-110630958D01*
X110535932Y-110630958D01*
X110723949Y-110553271D01*
X111282829Y-109995366D01*
X111547370Y-109358279D01*
X119407282Y-109358279D01*
X119433685Y-109948458D01*
X119608741Y-110371080D01*
X119860042Y-110451353D01*
X120724395Y-109587000D01*
X121083605Y-109587000D01*
X121947958Y-110451353D01*
X122199259Y-110371080D01*
X122400718Y-109815721D01*
X122374315Y-109225542D01*
X122199259Y-108802920D01*
X121947958Y-108722647D01*
X121083605Y-109587000D01*
X120724395Y-109587000D01*
X120724395Y-109587000D01*
X119860042Y-108722647D01*
X119608741Y-108802920D01*
X119407282Y-109358279D01*
X111547370Y-109358279D01*
X111585665Y-109266055D01*
X111586295Y-108543042D01*
X120039647Y-108543042D01*
X120904000Y-109407395D01*
X121768353Y-108543042D01*
X121688080Y-108291741D01*
X121132721Y-108090282D01*
X120542542Y-108116685D01*
X120119920Y-108291741D01*
X120039647Y-108543042D01*
X111586295Y-108543042D01*
X111586354Y-108476369D01*
X111284791Y-107746531D01*
X110726886Y-107187651D01*
X109997575Y-106884815D01*
X109207889Y-106884126D01*
X108478051Y-107185689D01*
X107919171Y-107743594D01*
X107616335Y-108472905D01*
X107615646Y-109262591D01*
X107238000Y-109262591D01*
X107238000Y-101876661D01*
X110903778Y-101876661D01*
X111116010Y-102390303D01*
X111508650Y-102783629D01*
X111716532Y-102869949D01*
X111510717Y-102954990D01*
X111117391Y-103347630D01*
X110904263Y-103860900D01*
X110903778Y-104416661D01*
X111116010Y-104930303D01*
X111508650Y-105323629D01*
X112021920Y-105536757D01*
X112577681Y-105537242D01*
X113091323Y-105325010D01*
X113296477Y-105120213D01*
X113499392Y-105120213D01*
X113568857Y-105362397D01*
X114092302Y-105549144D01*
X114647368Y-105521362D01*
X115031143Y-105362397D01*
X115100608Y-105120213D01*
X114300000Y-104319605D01*
X113499392Y-105120213D01*
X113296477Y-105120213D01*
X113484649Y-104932370D01*
X113595866Y-104664529D01*
X114120395Y-104140000D01*
X114479605Y-104140000D01*
X115280213Y-104940608D01*
X115522397Y-104871143D01*
X115709144Y-104347698D01*
X115681362Y-103792632D01*
X115522397Y-103408857D01*
X115280213Y-103339392D01*
X114479605Y-104140000D01*
X114120395Y-104140000D01*
X114120395Y-104140000D01*
X113595831Y-103615436D01*
X113486030Y-103349697D01*
X113093390Y-102956371D01*
X112885508Y-102870051D01*
X113091323Y-102785010D01*
X113300530Y-102576168D01*
X113507630Y-102783629D01*
X113699727Y-102863395D01*
X113568857Y-102917603D01*
X113499392Y-103159787D01*
X114300000Y-103960395D01*
X115100608Y-103159787D01*
X115031143Y-102917603D01*
X114890682Y-102867491D01*
X115090303Y-102785010D01*
X115483629Y-102392370D01*
X115696757Y-101879100D01*
X115697242Y-101323339D01*
X115485010Y-100809697D01*
X115092370Y-100416371D01*
X114579100Y-100203243D01*
X114023339Y-100202758D01*
X113509697Y-100414990D01*
X113300490Y-100623832D01*
X113093390Y-100416371D01*
X112580120Y-100203243D01*
X112024359Y-100202758D01*
X111510717Y-100414990D01*
X111117391Y-100807630D01*
X110904263Y-101320900D01*
X110903778Y-101876661D01*
X107238000Y-101876661D01*
X107238000Y-97263631D01*
X107615646Y-97263631D01*
X107917209Y-97993469D01*
X108475114Y-98552349D01*
X109204425Y-98855185D01*
X109994111Y-98855874D01*
X110723949Y-98554311D01*
X111165336Y-98113694D01*
X121682226Y-98113694D01*
X121930538Y-98714655D01*
X122389927Y-99174846D01*
X122878432Y-99377691D01*
X122392345Y-99578538D01*
X121932154Y-100037927D01*
X121682794Y-100638453D01*
X121682226Y-101288694D01*
X121930538Y-101889655D01*
X122389927Y-102349846D01*
X122878432Y-102552691D01*
X122392345Y-102753538D01*
X121932154Y-103212927D01*
X121682794Y-103813453D01*
X121682226Y-104463694D01*
X121930538Y-105064655D01*
X122389927Y-105524846D01*
X122990453Y-105774206D01*
X123640694Y-105774774D01*
X124241655Y-105526462D01*
X124701846Y-105067073D01*
X124951206Y-104466547D01*
X124951774Y-103816306D01*
X124703462Y-103215345D01*
X124244073Y-102755154D01*
X123755568Y-102552309D01*
X124241655Y-102351462D01*
X124701846Y-101892073D01*
X124951206Y-101291547D01*
X124951774Y-100641306D01*
X124703462Y-100040345D01*
X124244073Y-99580154D01*
X123755568Y-99377309D01*
X124241655Y-99176462D01*
X124701846Y-98717073D01*
X124951206Y-98116547D01*
X124951208Y-98113694D01*
X131842226Y-98113694D01*
X132090538Y-98714655D01*
X132549927Y-99174846D01*
X133038432Y-99377691D01*
X132552345Y-99578538D01*
X132092154Y-100037927D01*
X131842794Y-100638453D01*
X131842226Y-101288694D01*
X132090538Y-101889655D01*
X132549927Y-102349846D01*
X133038432Y-102552691D01*
X132552345Y-102753538D01*
X132092154Y-103212927D01*
X131842794Y-103813453D01*
X131842226Y-104463694D01*
X132090538Y-105064655D01*
X132549927Y-105524846D01*
X133150453Y-105774206D01*
X133800694Y-105774774D01*
X134401655Y-105526462D01*
X134861846Y-105067073D01*
X135111206Y-104466547D01*
X135111774Y-103816306D01*
X134863462Y-103215345D01*
X134404073Y-102755154D01*
X133915568Y-102552309D01*
X134401655Y-102351462D01*
X134861846Y-101892073D01*
X135111206Y-101291547D01*
X135111774Y-100641306D01*
X134863462Y-100040345D01*
X134404073Y-99580154D01*
X133915568Y-99377309D01*
X134401655Y-99176462D01*
X134861846Y-98717073D01*
X135111206Y-98116547D01*
X135111774Y-97466306D01*
X134863462Y-96865345D01*
X134404073Y-96405154D01*
X133803547Y-96155794D01*
X133153306Y-96155226D01*
X132552345Y-96403538D01*
X132092154Y-96862927D01*
X131842794Y-97463453D01*
X131842226Y-98113694D01*
X124951208Y-98113694D01*
X124951774Y-97466306D01*
X124703462Y-96865345D01*
X124244073Y-96405154D01*
X123643547Y-96155794D01*
X122993306Y-96155226D01*
X122392345Y-96403538D01*
X121932154Y-96862927D01*
X121682794Y-97463453D01*
X121682226Y-98113694D01*
X111165336Y-98113694D01*
X111282829Y-97996406D01*
X111585665Y-97267095D01*
X111586354Y-96477409D01*
X111284791Y-95747571D01*
X110726886Y-95188691D01*
X109997575Y-94885855D01*
X109207889Y-94885166D01*
X108478051Y-95186729D01*
X107919171Y-95744634D01*
X107616335Y-96473945D01*
X107615646Y-97263631D01*
X107238000Y-97263631D01*
X107238000Y-92134893D01*
X131891725Y-92134893D01*
X132132519Y-92717657D01*
X132577997Y-93163914D01*
X133160341Y-93405724D01*
X133790893Y-93406275D01*
X134373657Y-93165481D01*
X134470362Y-93068945D01*
X134606327Y-93275927D01*
X134817360Y-93418377D01*
X135067000Y-93468440D01*
X136967000Y-93468440D01*
X137209123Y-93421463D01*
X137421927Y-93281673D01*
X137564377Y-93070640D01*
X137614440Y-92821000D01*
X137614440Y-90821000D01*
X137567463Y-90578877D01*
X137427673Y-90366073D01*
X137216640Y-90223623D01*
X136967000Y-90173560D01*
X135067000Y-90173560D01*
X134824877Y-90220537D01*
X134612073Y-90360327D01*
X134469623Y-90571360D01*
X134469538Y-90571784D01*
X134376003Y-90478086D01*
X133793659Y-90236276D01*
X133163107Y-90235725D01*
X132580343Y-90476519D01*
X132134086Y-90921997D01*
X131892276Y-91504341D01*
X131891725Y-92134893D01*
X107238000Y-92134893D01*
X107238000Y-82352499D01*
X107313309Y-82534761D01*
X108062893Y-83285655D01*
X109042773Y-83692536D01*
X110103772Y-83693462D01*
X111084361Y-83288291D01*
X111835255Y-82538707D01*
X112242136Y-81558827D01*
X112243062Y-80497828D01*
X111837891Y-79517239D01*
X111088307Y-78766345D01*
X110839424Y-78663000D01*
X191216173Y-78663000D01*
X190972439Y-78763709D01*
X190972439Y-78763709D01*
G37*
X190972439Y-78763709D02*
X190221545Y-79513293D01*
X189814664Y-80493173D01*
X189814233Y-80986986D01*
X189797799Y-80980162D01*
X189584725Y-80979976D01*
X187297931Y-79434600D01*
X187227840Y-79405136D01*
X187164714Y-79362764D01*
X187092485Y-79348238D01*
X187024565Y-79319687D01*
X186948537Y-79319289D01*
X186873998Y-79304298D01*
X161164605Y-79250002D01*
X161162078Y-79250499D01*
X161159549Y-79250008D01*
X161016698Y-79279098D01*
X160873645Y-79307239D01*
X160871500Y-79308666D01*
X160868975Y-79309180D01*
X160748129Y-79390723D01*
X160626735Y-79471465D01*
X160625299Y-79473604D01*
X160623164Y-79475045D01*
X146704164Y-93521045D01*
X146623287Y-93643285D01*
X146541852Y-93765161D01*
X146541509Y-93766886D01*
X146540539Y-93768352D01*
X146512607Y-93912185D01*
X146484000Y-94056000D01*
X146484000Y-96425018D01*
X146462117Y-96372057D01*
X146199327Y-96108808D01*
X145855799Y-95966162D01*
X145483833Y-95965838D01*
X145140057Y-96107883D01*
X144876808Y-96370673D01*
X144818789Y-96510398D01*
X144780173Y-96568191D01*
X144766732Y-96635765D01*
X144734162Y-96714201D01*
X144734087Y-96799878D01*
X144709000Y-96926000D01*
X144709000Y-97713750D01*
X144558250Y-97563000D01*
X144442690Y-97563000D01*
X144209301Y-97659673D01*
X144030673Y-97838302D01*
X143934000Y-98071691D01*
X143934000Y-98662250D01*
X144092750Y-98821000D01*
X144709000Y-98821000D01*
X144709000Y-98948000D01*
X144721560Y-99011143D01*
X144721560Y-99698000D01*
X144768537Y-99940123D01*
X144908327Y-100152927D01*
X145035563Y-100238813D01*
X145129750Y-100333000D01*
X145245310Y-100333000D01*
X145265424Y-100324669D01*
X145369000Y-100345440D01*
X145919000Y-100345440D01*
X146046065Y-100320787D01*
X146169000Y-100345440D01*
X146719000Y-100345440D01*
X146846065Y-100320787D01*
X146969000Y-100345440D01*
X147519000Y-100345440D01*
X147646065Y-100320787D01*
X147769000Y-100345440D01*
X148319000Y-100345440D01*
X148446065Y-100320787D01*
X148569000Y-100345440D01*
X149119000Y-100345440D01*
X149246065Y-100320787D01*
X149369000Y-100345440D01*
X149919000Y-100345440D01*
X150046065Y-100320787D01*
X150169000Y-100345440D01*
X150719000Y-100345440D01*
X150846065Y-100320787D01*
X150969000Y-100345440D01*
X151519000Y-100345440D01*
X151646065Y-100320787D01*
X151769000Y-100345440D01*
X152319000Y-100345440D01*
X152423687Y-100325129D01*
X152442690Y-100333000D01*
X152558250Y-100333000D01*
X152653410Y-100237840D01*
X152773927Y-100158673D01*
X152916377Y-99947640D01*
X152966440Y-99698000D01*
X152966440Y-99011143D01*
X152979000Y-98948000D01*
X152979000Y-98821000D01*
X153595250Y-98821000D01*
X153754000Y-98662250D01*
X153754000Y-98071691D01*
X153657327Y-97838302D01*
X153478699Y-97659673D01*
X153245310Y-97563000D01*
X153129750Y-97563000D01*
X152979000Y-97713750D01*
X152979000Y-97053000D01*
X152954088Y-96927760D01*
X152954162Y-96842833D01*
X152921444Y-96763650D01*
X152907827Y-96695191D01*
X152869387Y-96637661D01*
X152812117Y-96499057D01*
X152705232Y-96391986D01*
X152705145Y-96391855D01*
X152680436Y-96367146D01*
X152646076Y-96332726D01*
X152841802Y-96137000D01*
X159838537Y-96137000D01*
X159870673Y-96169192D01*
X160214201Y-96311838D01*
X160586167Y-96312162D01*
X160929943Y-96170117D01*
X161193192Y-95907327D01*
X161335838Y-95563799D01*
X161336162Y-95191833D01*
X161194117Y-94848057D01*
X160931327Y-94584808D01*
X160587799Y-94442162D01*
X160215833Y-94441838D01*
X159872057Y-94583883D01*
X159838882Y-94617000D01*
X152583802Y-94617000D01*
X153476802Y-93724000D01*
X159203537Y-93724000D01*
X159235673Y-93756192D01*
X159579201Y-93898838D01*
X159951167Y-93899162D01*
X160294943Y-93757117D01*
X160558192Y-93494327D01*
X160700838Y-93150799D01*
X160701162Y-92778833D01*
X160559117Y-92435057D01*
X160296327Y-92171808D01*
X159952799Y-92029162D01*
X159580833Y-92028838D01*
X159237057Y-92170883D01*
X159203882Y-92204000D01*
X154061228Y-92204000D01*
X157777441Y-88686089D01*
X160072743Y-88686089D01*
X160298344Y-89232086D01*
X160715717Y-89650188D01*
X161261319Y-89876742D01*
X161852089Y-89877257D01*
X162398086Y-89651656D01*
X162816188Y-89234283D01*
X163042742Y-88688681D01*
X163043257Y-88097911D01*
X162817656Y-87551914D01*
X162400283Y-87133812D01*
X161854681Y-86907258D01*
X161263911Y-86906743D01*
X160717914Y-87132344D01*
X160299812Y-87549717D01*
X160073258Y-88095319D01*
X160072743Y-88686089D01*
X157777441Y-88686089D01*
X161846670Y-84834000D01*
X174391890Y-84834000D01*
X174343560Y-85075000D01*
X174343560Y-86375000D01*
X174390537Y-86617123D01*
X174530327Y-86829927D01*
X174741360Y-86972377D01*
X174991000Y-87022440D01*
X176291000Y-87022440D01*
X176533123Y-86975463D01*
X176745927Y-86835673D01*
X176888377Y-86624640D01*
X176888502Y-86624016D01*
X177421590Y-86624016D01*
X177477271Y-86854611D01*
X177960078Y-87022622D01*
X178470428Y-86993083D01*
X178804729Y-86854611D01*
X178860410Y-86624016D01*
X178141000Y-85904605D01*
X177421590Y-86624016D01*
X176888502Y-86624016D01*
X176938440Y-86375000D01*
X176938440Y-86212615D01*
X177011389Y-86388729D01*
X177241984Y-86444410D01*
X177961395Y-85725000D01*
X177947252Y-85710858D01*
X178126858Y-85531252D01*
X178141000Y-85545395D01*
X178155142Y-85531252D01*
X178334748Y-85710858D01*
X178320605Y-85725000D01*
X179040016Y-86444410D01*
X179270611Y-86388729D01*
X179438622Y-85905922D01*
X179409083Y-85395572D01*
X179270611Y-85061271D01*
X179040018Y-85005590D01*
X179155478Y-84890130D01*
X179099348Y-84834000D01*
X184059035Y-84834000D01*
X186848804Y-86577606D01*
X190239207Y-89968009D01*
X190001860Y-98512486D01*
X189994000Y-98552000D01*
X189994000Y-102047198D01*
X189677198Y-102364000D01*
X189538463Y-102364000D01*
X189506327Y-102331808D01*
X189162799Y-102189162D01*
X188790833Y-102188838D01*
X188447057Y-102330883D01*
X188183808Y-102593673D01*
X188041162Y-102937201D01*
X188040838Y-103309167D01*
X188182883Y-103652943D01*
X188445673Y-103916192D01*
X188789201Y-104058838D01*
X189161167Y-104059162D01*
X189504943Y-103917117D01*
X189538118Y-103884000D01*
X189992000Y-103884000D01*
X190282839Y-103826148D01*
X190529401Y-103661401D01*
X191137000Y-103053802D01*
X191137000Y-105349198D01*
X189217320Y-107268878D01*
X189171833Y-107268838D01*
X188828057Y-107410883D01*
X188564808Y-107673673D01*
X188422162Y-108017201D01*
X188421838Y-108389167D01*
X188563883Y-108732943D01*
X188826673Y-108996192D01*
X189170201Y-109138838D01*
X189542167Y-109139162D01*
X189885943Y-108997117D01*
X190149192Y-108734327D01*
X190291838Y-108390799D01*
X190291879Y-108343923D01*
X192434401Y-106201401D01*
X192599148Y-105954840D01*
X192642113Y-105738839D01*
X192657000Y-105664000D01*
X192657000Y-97627368D01*
X192853201Y-97708838D01*
X193225167Y-97709162D01*
X193568943Y-97567117D01*
X193832192Y-97304327D01*
X193974838Y-96960799D01*
X193975162Y-96588833D01*
X193833117Y-96245057D01*
X193807667Y-96219562D01*
X193926929Y-87513410D01*
X193925966Y-87508195D01*
X193926999Y-87503000D01*
X193899078Y-87362630D01*
X193873066Y-87221806D01*
X193870182Y-87217359D01*
X193869148Y-87212160D01*
X193789613Y-87093128D01*
X193711712Y-86973010D01*
X193707345Y-86970005D01*
X193704401Y-86965599D01*
X189588783Y-82849981D01*
X189796167Y-82850162D01*
X190139943Y-82708117D01*
X190266173Y-82582107D01*
X190968493Y-83285655D01*
X191948373Y-83692536D01*
X193009372Y-83693462D01*
X193989961Y-83288291D01*
X194740855Y-82538707D01*
X194895000Y-82167484D01*
X194895000Y-130125119D01*
X194743491Y-129758439D01*
X193993907Y-129007545D01*
X193014027Y-128600664D01*
X191953028Y-128599738D01*
X190972439Y-129004909D01*
X190221545Y-129754493D01*
X189814664Y-130734373D01*
X189813738Y-131795372D01*
X190218909Y-132775961D01*
X190968493Y-133526855D01*
X191033866Y-133554000D01*
X110829954Y-133554000D01*
X111135161Y-133427891D01*
X111886055Y-132678307D01*
X112292936Y-131698427D01*
X112293862Y-130637428D01*
X111888691Y-129656839D01*
X111139107Y-128905945D01*
X110372205Y-128587500D01*
X139370060Y-128587500D01*
X139370060Y-129984500D01*
X139417037Y-130226623D01*
X139556827Y-130439427D01*
X139767860Y-130581877D01*
X140017500Y-130631940D01*
X141414500Y-130631940D01*
X141656623Y-130584963D01*
X141869427Y-130445173D01*
X142011877Y-130234140D01*
X142061940Y-129984500D01*
X142061940Y-129550086D01*
X154622269Y-129550086D01*
X154824854Y-130040380D01*
X155199647Y-130415827D01*
X155689587Y-130619268D01*
X156220086Y-130619731D01*
X156710380Y-130417146D01*
X157085827Y-130042353D01*
X157289268Y-129552413D01*
X157289731Y-129021914D01*
X157087146Y-128531620D01*
X156712353Y-128156173D01*
X156222413Y-127952732D01*
X155691914Y-127952269D01*
X155201620Y-128154854D01*
X154826173Y-128529647D01*
X154622732Y-129019587D01*
X154622269Y-129550086D01*
X142061940Y-129550086D01*
X142061940Y-128587500D01*
X142014963Y-128345377D01*
X141875173Y-128132573D01*
X141664140Y-127990123D01*
X141414500Y-127940060D01*
X140017500Y-127940060D01*
X139775377Y-127987037D01*
X139562573Y-128126827D01*
X139420123Y-128337860D01*
X139370060Y-128587500D01*
X110372205Y-128587500D01*
X110159227Y-128499064D01*
X109098228Y-128498138D01*
X108117639Y-128903309D01*
X107366745Y-129652893D01*
X107238000Y-129962946D01*
X107238000Y-123737000D01*
X119406560Y-123737000D01*
X119406560Y-125437000D01*
X119453537Y-125679123D01*
X119593327Y-125891927D01*
X119804360Y-126034377D01*
X120054000Y-126084440D01*
X121754000Y-126084440D01*
X121996123Y-126037463D01*
X122208927Y-125897673D01*
X122351377Y-125686640D01*
X122401440Y-125437000D01*
X122401440Y-123737000D01*
X122354463Y-123494877D01*
X122214673Y-123282073D01*
X122003640Y-123139623D01*
X121754000Y-123089560D01*
X120054000Y-123089560D01*
X119811877Y-123136537D01*
X119599073Y-123276327D01*
X119456623Y-123487360D01*
X119406560Y-123737000D01*
X107238000Y-123737000D01*
X107238000Y-122600188D01*
X139961417Y-122600188D01*
X140023071Y-122835800D01*
X140523480Y-123011927D01*
X141053199Y-122983148D01*
X141408929Y-122835800D01*
X141470583Y-122600188D01*
X140716000Y-121845605D01*
X139961417Y-122600188D01*
X107238000Y-122600188D01*
X107238000Y-121473480D01*
X139370073Y-121473480D01*
X139398852Y-122003199D01*
X139546200Y-122358929D01*
X139781812Y-122420583D01*
X140536395Y-121666000D01*
X140895605Y-121666000D01*
X141650188Y-122420583D01*
X141885800Y-122358929D01*
X142036738Y-121930086D01*
X154622269Y-121930086D01*
X154824854Y-122420380D01*
X155199647Y-122795827D01*
X155689587Y-122999268D01*
X156220086Y-122999731D01*
X156710380Y-122797146D01*
X157085827Y-122422353D01*
X157289268Y-121932413D01*
X157289731Y-121401914D01*
X157087146Y-120911620D01*
X156712353Y-120536173D01*
X156222413Y-120332732D01*
X155691914Y-120332269D01*
X155201620Y-120534854D01*
X154826173Y-120909647D01*
X154622732Y-121399587D01*
X154622269Y-121930086D01*
X142036738Y-121930086D01*
X142061927Y-121858520D01*
X142033148Y-121328801D01*
X141885800Y-120973071D01*
X141650188Y-120911417D01*
X140895605Y-121666000D01*
X140536395Y-121666000D01*
X140536395Y-121666000D01*
X139781812Y-120911417D01*
X139546200Y-120973071D01*
X139370073Y-121473480D01*
X107238000Y-121473480D01*
X107238000Y-120731812D01*
X139961417Y-120731812D01*
X140716000Y-121486395D01*
X141470583Y-120731812D01*
X141408929Y-120496200D01*
X140908520Y-120320073D01*
X140378801Y-120348852D01*
X140023071Y-120496200D01*
X139961417Y-120731812D01*
X107238000Y-120731812D01*
X107238000Y-116332000D01*
X128012041Y-116332000D01*
X128126115Y-116905489D01*
X128450971Y-117391670D01*
X128765752Y-117602000D01*
X128450971Y-117812330D01*
X128126115Y-118298511D01*
X128012041Y-118872000D01*
X128126115Y-119445489D01*
X128450971Y-119931670D01*
X128937152Y-120256526D01*
X129510641Y-120370600D01*
X129569359Y-120370600D01*
X130142848Y-120256526D01*
X130629029Y-119931670D01*
X130810000Y-119660828D01*
X130990971Y-119931670D01*
X131477152Y-120256526D01*
X132050641Y-120370600D01*
X132109359Y-120370600D01*
X132682848Y-120256526D01*
X133169029Y-119931670D01*
X133493885Y-119445489D01*
X133607959Y-118872000D01*
X133493885Y-118298511D01*
X133169029Y-117812330D01*
X133131370Y-117787167D01*
X134319838Y-117787167D01*
X134461883Y-118130943D01*
X134724673Y-118394192D01*
X135068201Y-118536838D01*
X135440167Y-118537162D01*
X135783943Y-118395117D01*
X135817118Y-118362000D01*
X139319000Y-118362000D01*
X139609839Y-118304148D01*
X139856401Y-118139401D01*
X140743052Y-117252750D01*
X144384000Y-117252750D01*
X144384000Y-117743310D01*
X144480673Y-117976699D01*
X144659302Y-118155327D01*
X144892691Y-118252000D01*
X145383250Y-118252000D01*
X145542000Y-118093250D01*
X145542000Y-117094000D01*
X144542750Y-117094000D01*
X144384000Y-117252750D01*
X140743052Y-117252750D01*
X141805112Y-116190690D01*
X144384000Y-116190690D01*
X144384000Y-116681250D01*
X144542750Y-116840000D01*
X145542000Y-116840000D01*
X145542000Y-115840750D01*
X145383250Y-115682000D01*
X144892691Y-115682000D01*
X144659302Y-115778673D01*
X144480673Y-115957301D01*
X144384000Y-116190690D01*
X141805112Y-116190690D01*
X146181401Y-111814401D01*
X146316998Y-111611466D01*
X146316998Y-111733000D01*
X146359000Y-111733000D01*
X146359000Y-114477995D01*
X146358999Y-114478000D01*
X146404432Y-114706400D01*
X146426367Y-114816675D01*
X146590287Y-115062000D01*
X146618210Y-115103790D01*
X146731256Y-115216835D01*
X146780883Y-115336943D01*
X147043673Y-115600192D01*
X147387201Y-115742838D01*
X147759167Y-115743162D01*
X148102943Y-115601117D01*
X148137348Y-115566771D01*
X148145660Y-115579210D01*
X148214367Y-115682039D01*
X147914519Y-115681777D01*
X147442057Y-115876995D01*
X147080265Y-116238155D01*
X146954000Y-116542235D01*
X146954000Y-116190690D01*
X146857327Y-115957301D01*
X146678698Y-115778673D01*
X146445309Y-115682000D01*
X145954750Y-115682000D01*
X145796000Y-115840750D01*
X145796000Y-116840000D01*
X145816000Y-116840000D01*
X145816000Y-117094000D01*
X145796000Y-117094000D01*
X145796000Y-118093250D01*
X145954750Y-118252000D01*
X146445309Y-118252000D01*
X146678698Y-118155327D01*
X146857327Y-117976699D01*
X146954000Y-117743310D01*
X146954000Y-117391433D01*
X147078995Y-117693943D01*
X147440155Y-118055735D01*
X147912276Y-118251777D01*
X148423481Y-118252223D01*
X148895943Y-118057005D01*
X149257735Y-117695845D01*
X149453777Y-117223724D01*
X149453977Y-116994491D01*
X149456673Y-116997192D01*
X149800201Y-117139838D01*
X150172167Y-117140162D01*
X150515943Y-116998117D01*
X150779192Y-116735327D01*
X150912711Y-116413778D01*
X151130000Y-116457000D01*
X160854537Y-116457000D01*
X160886673Y-116489192D01*
X161230201Y-116631838D01*
X161602167Y-116632162D01*
X161945943Y-116490117D01*
X162209192Y-116227327D01*
X162351838Y-115883799D01*
X162352162Y-115511833D01*
X162210117Y-115168057D01*
X161947327Y-114904808D01*
X161603799Y-114762162D01*
X161231833Y-114761838D01*
X161209033Y-114771259D01*
X161209113Y-114679000D01*
X162499198Y-114679000D01*
X162562000Y-114741802D01*
X162562000Y-119380000D01*
X162619852Y-119670839D01*
X162784599Y-119917401D01*
X164308599Y-121441401D01*
X164555160Y-121606148D01*
X164603414Y-121615746D01*
X164846000Y-121664000D01*
X167603547Y-121664000D01*
X167767778Y-121909789D01*
X168163199Y-122174000D01*
X167767778Y-122438211D01*
X167459441Y-122899671D01*
X167351167Y-123444000D01*
X167459441Y-123988329D01*
X167767778Y-124449789D01*
X168229238Y-124758126D01*
X168773567Y-124866400D01*
X169554433Y-124866400D01*
X170098762Y-124758126D01*
X170560222Y-124449789D01*
X170868559Y-123988329D01*
X170976833Y-123444000D01*
X170868559Y-122899671D01*
X170560222Y-122438211D01*
X170164801Y-122174000D01*
X170560222Y-121909789D01*
X170868559Y-121448329D01*
X170976833Y-120904000D01*
X170875387Y-120394000D01*
X177485198Y-120394000D01*
X178532599Y-121441401D01*
X178779160Y-121606148D01*
X179070000Y-121664000D01*
X182843547Y-121664000D01*
X183007778Y-121909789D01*
X183403199Y-122174000D01*
X183007778Y-122438211D01*
X182699441Y-122899671D01*
X182591167Y-123444000D01*
X182699441Y-123988329D01*
X183007778Y-124449789D01*
X183469238Y-124758126D01*
X184013567Y-124866400D01*
X184794433Y-124866400D01*
X185338762Y-124758126D01*
X185800222Y-124449789D01*
X186108559Y-123988329D01*
X186216833Y-123444000D01*
X186108559Y-122899671D01*
X185800222Y-122438211D01*
X185404801Y-122174000D01*
X185800222Y-121909789D01*
X186108559Y-121448329D01*
X186216833Y-120904000D01*
X186108559Y-120359671D01*
X185800222Y-119898211D01*
X185404801Y-119634000D01*
X185800222Y-119369789D01*
X186108559Y-118908329D01*
X186216833Y-118364000D01*
X186108559Y-117819671D01*
X185800222Y-117358211D01*
X185404801Y-117094000D01*
X185800222Y-116829789D01*
X186108559Y-116368329D01*
X186216833Y-115824000D01*
X186108559Y-115279671D01*
X185800222Y-114818211D01*
X185404801Y-114554000D01*
X185800222Y-114289789D01*
X186108559Y-113828329D01*
X186216833Y-113284000D01*
X186108559Y-112739671D01*
X185800222Y-112278211D01*
X185404801Y-112014000D01*
X185800222Y-111749789D01*
X186108559Y-111288329D01*
X186216833Y-110744000D01*
X186108559Y-110199671D01*
X185800222Y-109738211D01*
X185404801Y-109474000D01*
X185800222Y-109209789D01*
X186108559Y-108748329D01*
X186216833Y-108204000D01*
X186108559Y-107659671D01*
X185800222Y-107198211D01*
X185404801Y-106934000D01*
X185800222Y-106669789D01*
X186108559Y-106208329D01*
X186216833Y-105664000D01*
X186108559Y-105119671D01*
X185800222Y-104658211D01*
X185404801Y-104394000D01*
X185800222Y-104129789D01*
X186108559Y-103668329D01*
X186216833Y-103124000D01*
X186108559Y-102579671D01*
X185800222Y-102118211D01*
X185404801Y-101854000D01*
X185800222Y-101589789D01*
X186108559Y-101128329D01*
X186216833Y-100584000D01*
X186108559Y-100039671D01*
X185800222Y-99578211D01*
X185404801Y-99314000D01*
X185800222Y-99049789D01*
X186108559Y-98588329D01*
X186216833Y-98044000D01*
X186108559Y-97499671D01*
X185800222Y-97038211D01*
X185404801Y-96774000D01*
X185800222Y-96509789D01*
X186108559Y-96048329D01*
X186216833Y-95504000D01*
X186108559Y-94959671D01*
X185800222Y-94498211D01*
X185404801Y-94234000D01*
X185800222Y-93969789D01*
X186108559Y-93508329D01*
X186216833Y-92964000D01*
X186108559Y-92419671D01*
X185800222Y-91958211D01*
X185405170Y-91694246D01*
X185421262Y-91689525D01*
X185855191Y-91339986D01*
X186122327Y-90850996D01*
X186139010Y-90771060D01*
X186016852Y-90551000D01*
X184531000Y-90551000D01*
X184531000Y-90571000D01*
X184277000Y-90571000D01*
X184277000Y-90551000D01*
X182791148Y-90551000D01*
X182668990Y-90771060D01*
X182685673Y-90850996D01*
X182952809Y-91339986D01*
X183386738Y-91689525D01*
X183402830Y-91694246D01*
X183007778Y-91958211D01*
X182699441Y-92419671D01*
X182591167Y-92964000D01*
X182699441Y-93508329D01*
X183007778Y-93969789D01*
X183403199Y-94234000D01*
X183007778Y-94498211D01*
X182699441Y-94959671D01*
X182591167Y-95504000D01*
X182699441Y-96048329D01*
X183007778Y-96509789D01*
X183403199Y-96774000D01*
X183007778Y-97038211D01*
X182699441Y-97499671D01*
X182591167Y-98044000D01*
X182699441Y-98588329D01*
X183007778Y-99049789D01*
X183403199Y-99314000D01*
X183007778Y-99578211D01*
X182699441Y-100039671D01*
X182591167Y-100584000D01*
X182699441Y-101128329D01*
X183007778Y-101589789D01*
X183403199Y-101854000D01*
X183007778Y-102118211D01*
X182699441Y-102579671D01*
X182591167Y-103124000D01*
X182699441Y-103668329D01*
X183007778Y-104129789D01*
X183403199Y-104394000D01*
X183007778Y-104658211D01*
X182699441Y-105119671D01*
X182591167Y-105664000D01*
X182699441Y-106208329D01*
X183007778Y-106669789D01*
X183403199Y-106934000D01*
X183007778Y-107198211D01*
X182699441Y-107659671D01*
X182591167Y-108204000D01*
X182699441Y-108748329D01*
X183007778Y-109209789D01*
X183403199Y-109474000D01*
X183007778Y-109738211D01*
X182699441Y-110199671D01*
X182591167Y-110744000D01*
X182699441Y-111288329D01*
X183007778Y-111749789D01*
X183403199Y-112014000D01*
X183007778Y-112278211D01*
X182843547Y-112524000D01*
X179384802Y-112524000D01*
X178337401Y-111476599D01*
X178090839Y-111311852D01*
X177800000Y-111254000D01*
X170875387Y-111254000D01*
X170976833Y-110744000D01*
X170868559Y-110199671D01*
X170560222Y-109738211D01*
X170164801Y-109474000D01*
X170560222Y-109209789D01*
X170868559Y-108748329D01*
X170976833Y-108204000D01*
X170868559Y-107659671D01*
X170560222Y-107198211D01*
X170164801Y-106934000D01*
X170560222Y-106669789D01*
X170868559Y-106208329D01*
X170976833Y-105664000D01*
X170868559Y-105119671D01*
X170560222Y-104658211D01*
X170164801Y-104394000D01*
X170560222Y-104129789D01*
X170868559Y-103668329D01*
X170976833Y-103124000D01*
X170868559Y-102579671D01*
X170560222Y-102118211D01*
X170164801Y-101854000D01*
X170560222Y-101589789D01*
X170868559Y-101128329D01*
X170976833Y-100584000D01*
X170868559Y-100039671D01*
X170560222Y-99578211D01*
X170164801Y-99314000D01*
X170560222Y-99049789D01*
X170868559Y-98588329D01*
X170976833Y-98044000D01*
X170868559Y-97499671D01*
X170560222Y-97038211D01*
X170164801Y-96774000D01*
X170560222Y-96509789D01*
X170868559Y-96048329D01*
X170976833Y-95504000D01*
X170868559Y-94959671D01*
X170560222Y-94498211D01*
X170164801Y-94234000D01*
X170560222Y-93969789D01*
X170868559Y-93508329D01*
X170976833Y-92964000D01*
X170868559Y-92419671D01*
X170560222Y-91958211D01*
X170387986Y-91843127D01*
X170549123Y-91811863D01*
X170761927Y-91672073D01*
X170904377Y-91461040D01*
X170954440Y-91211400D01*
X170954440Y-90076940D01*
X182668990Y-90076940D01*
X182791148Y-90297000D01*
X184277000Y-90297000D01*
X184277000Y-89001600D01*
X184531000Y-89001600D01*
X184531000Y-90297000D01*
X186016852Y-90297000D01*
X186139010Y-90076940D01*
X186122327Y-89997004D01*
X185855191Y-89508014D01*
X185421262Y-89158475D01*
X184886600Y-89001600D01*
X184531000Y-89001600D01*
X184277000Y-89001600D01*
X184277000Y-89001600D01*
X183921400Y-89001600D01*
X183386738Y-89158475D01*
X182952809Y-89508014D01*
X182685673Y-89997004D01*
X182668990Y-90076940D01*
X170954440Y-90076940D01*
X170954440Y-89636600D01*
X170907463Y-89394477D01*
X170767673Y-89181673D01*
X170556640Y-89039223D01*
X170307000Y-88989160D01*
X168021000Y-88989160D01*
X167778877Y-89036137D01*
X167566073Y-89175927D01*
X167423623Y-89386960D01*
X167373560Y-89636600D01*
X167373560Y-89664000D01*
X165354000Y-89664000D01*
X165063161Y-89721852D01*
X164816599Y-89886599D01*
X163038599Y-91664599D01*
X162873852Y-91911161D01*
X162816000Y-92202000D01*
X162816000Y-95697198D01*
X157825198Y-100688000D01*
X157434802Y-100688000D01*
X157619680Y-100503122D01*
X157665167Y-100503162D01*
X158008943Y-100361117D01*
X158272192Y-100098327D01*
X158414838Y-99754799D01*
X158415162Y-99382833D01*
X158273117Y-99039057D01*
X158010327Y-98775808D01*
X157666799Y-98633162D01*
X157294833Y-98632838D01*
X156951057Y-98774883D01*
X156687808Y-99037673D01*
X156545162Y-99381201D01*
X156545121Y-99428077D01*
X156085198Y-99888000D01*
X155710121Y-99888000D01*
X155543640Y-99775623D01*
X155294000Y-99725560D01*
X153794000Y-99725560D01*
X153754000Y-99733321D01*
X153754000Y-99233750D01*
X153595250Y-99075000D01*
X152971000Y-99075000D01*
X152971000Y-100174250D01*
X153129750Y-100333000D01*
X153154582Y-100333000D01*
X153146560Y-100373000D01*
X153146560Y-100923000D01*
X153171213Y-101050065D01*
X153146560Y-101173000D01*
X153146560Y-101723000D01*
X153171213Y-101850065D01*
X153146560Y-101973000D01*
X153146560Y-102523000D01*
X153171213Y-102650065D01*
X153146560Y-102773000D01*
X153146560Y-103323000D01*
X153171213Y-103450065D01*
X153146560Y-103573000D01*
X153146560Y-104123000D01*
X153171213Y-104250065D01*
X153146560Y-104373000D01*
X153146560Y-104923000D01*
X153171213Y-105050065D01*
X153146560Y-105173000D01*
X153146560Y-105723000D01*
X153171213Y-105850065D01*
X153146560Y-105973000D01*
X153146560Y-106523000D01*
X153171213Y-106650065D01*
X153146560Y-106773000D01*
X153146560Y-107323000D01*
X153166871Y-107427687D01*
X153159000Y-107446690D01*
X153159000Y-107562250D01*
X153254160Y-107657410D01*
X153295931Y-107720998D01*
X153159000Y-107720998D01*
X153159000Y-107763000D01*
X147892000Y-107763000D01*
X147553325Y-107830367D01*
X147266210Y-108022210D01*
X147266208Y-108022213D01*
X146618210Y-108670210D01*
X146426367Y-108957325D01*
X146426367Y-108957326D01*
X146425238Y-108963000D01*
X146316998Y-108963000D01*
X146316998Y-109100767D01*
X146252437Y-109057187D01*
X146158250Y-108963000D01*
X146042690Y-108963000D01*
X146022576Y-108971331D01*
X145919000Y-108950560D01*
X145604000Y-108950560D01*
X145604000Y-107692802D01*
X148221680Y-105075122D01*
X148267167Y-105075162D01*
X148610943Y-104933117D01*
X148874192Y-104670327D01*
X149016838Y-104326799D01*
X149017162Y-103954833D01*
X148875117Y-103611057D01*
X148612327Y-103347808D01*
X148268799Y-103205162D01*
X147896833Y-103204838D01*
X147553057Y-103346883D01*
X147289808Y-103609673D01*
X147147162Y-103953201D01*
X147147121Y-104000077D01*
X144520681Y-106626517D01*
X144541440Y-106523000D01*
X144541440Y-105973000D01*
X144521129Y-105868313D01*
X144529000Y-105849310D01*
X144529000Y-105733750D01*
X144433840Y-105638590D01*
X144354673Y-105518073D01*
X144250931Y-105448046D01*
X144348927Y-105383673D01*
X144434813Y-105256437D01*
X144529000Y-105162250D01*
X144529000Y-105046690D01*
X144520669Y-105026576D01*
X144541440Y-104923000D01*
X144541440Y-104373000D01*
X144516787Y-104245935D01*
X144541440Y-104123000D01*
X144541440Y-103573000D01*
X144516787Y-103445935D01*
X144541440Y-103323000D01*
X144541440Y-102773000D01*
X144516787Y-102645935D01*
X144541440Y-102523000D01*
X144541440Y-101973000D01*
X144521129Y-101868313D01*
X144529000Y-101849310D01*
X144529000Y-101733750D01*
X144433840Y-101638590D01*
X144354673Y-101518073D01*
X144250931Y-101448046D01*
X144348927Y-101383673D01*
X144434813Y-101256437D01*
X144529000Y-101162250D01*
X144529000Y-101046690D01*
X144520669Y-101026576D01*
X144541440Y-100923000D01*
X144541440Y-100373000D01*
X144533679Y-100333000D01*
X144558250Y-100333000D01*
X144717000Y-100174250D01*
X144717000Y-99075000D01*
X144092750Y-99075000D01*
X143934000Y-99233750D01*
X143934000Y-99733582D01*
X143894000Y-99725560D01*
X142394000Y-99725560D01*
X142151877Y-99772537D01*
X141976106Y-99888000D01*
X141348802Y-99888000D01*
X141095000Y-99634198D01*
X141095000Y-95564802D01*
X141665802Y-94994000D01*
X142312537Y-94994000D01*
X142344673Y-95026192D01*
X142688201Y-95168838D01*
X143060167Y-95169162D01*
X143403943Y-95027117D01*
X143667192Y-94764327D01*
X143809838Y-94420799D01*
X143810162Y-94048833D01*
X143668117Y-93705057D01*
X143405327Y-93441808D01*
X143061799Y-93299162D01*
X142689833Y-93298838D01*
X142346057Y-93440883D01*
X142312882Y-93474000D01*
X141351000Y-93474000D01*
X141060161Y-93531852D01*
X140813599Y-93696599D01*
X139797599Y-94712599D01*
X139632852Y-94959161D01*
X139575000Y-95250000D01*
X139575000Y-99949000D01*
X139632852Y-100239839D01*
X139797599Y-100486401D01*
X140496599Y-101185401D01*
X140743160Y-101350148D01*
X141034000Y-101408000D01*
X141977879Y-101408000D01*
X142037069Y-101447954D01*
X141976106Y-101488000D01*
X140021219Y-101488000D01*
X139849327Y-101315808D01*
X139505799Y-101173162D01*
X139133833Y-101172838D01*
X138790057Y-101314883D01*
X138553000Y-101551527D01*
X138553000Y-94727580D01*
X144003579Y-89277000D01*
X145067351Y-89277000D01*
X145107537Y-89484123D01*
X145247327Y-89696927D01*
X145458360Y-89839377D01*
X145708000Y-89889440D01*
X147408000Y-89889440D01*
X147650123Y-89842463D01*
X147862927Y-89702673D01*
X148005377Y-89491640D01*
X148055440Y-89242000D01*
X148055440Y-87542000D01*
X148008463Y-87299877D01*
X147868673Y-87087073D01*
X147657640Y-86944623D01*
X147408000Y-86894560D01*
X145708000Y-86894560D01*
X145465877Y-86941537D01*
X145253073Y-87081327D01*
X145110623Y-87292360D01*
X145067579Y-87507000D01*
X143637005Y-87507000D01*
X143637000Y-87506999D01*
X143354516Y-87563190D01*
X143298325Y-87574367D01*
X143011210Y-87766210D01*
X143011208Y-87766213D01*
X137042210Y-93735210D01*
X136850367Y-94022325D01*
X136850367Y-94022326D01*
X136782999Y-94361000D01*
X136783000Y-94361005D01*
X136783000Y-101983634D01*
X136733000Y-102235000D01*
X136733000Y-103632000D01*
X136804173Y-103989809D01*
X137006855Y-104293145D01*
X138022855Y-105309145D01*
X138290531Y-105488000D01*
X135941000Y-105488000D01*
X135650161Y-105545852D01*
X135403599Y-105710598D01*
X134717599Y-106396599D01*
X134552852Y-106643161D01*
X134495000Y-106934000D01*
X134495000Y-111125000D01*
X134552852Y-111415839D01*
X134717599Y-111662401D01*
X135733599Y-112678401D01*
X135980161Y-112843148D01*
X136271000Y-112901000D01*
X139518537Y-112901000D01*
X139550673Y-112933192D01*
X139894201Y-113075838D01*
X140266167Y-113076162D01*
X140609943Y-112934117D01*
X140873192Y-112671327D01*
X141015838Y-112327799D01*
X141015961Y-112186930D01*
X141282167Y-112187162D01*
X141625943Y-112045117D01*
X141889192Y-111782327D01*
X142031838Y-111438799D01*
X142032162Y-111066833D01*
X141890117Y-110723057D01*
X141627327Y-110459808D01*
X141283799Y-110317162D01*
X140911833Y-110316838D01*
X140568057Y-110458883D01*
X140534882Y-110492000D01*
X137220802Y-110492000D01*
X136904000Y-110175198D01*
X136904000Y-109270111D01*
X137137673Y-109504192D01*
X137481201Y-109646838D01*
X137853167Y-109647162D01*
X138196943Y-109505117D01*
X138294230Y-109408000D01*
X141977879Y-109408000D01*
X142144360Y-109520377D01*
X142394000Y-109570440D01*
X143894000Y-109570440D01*
X143928426Y-109563761D01*
X143921560Y-109598000D01*
X143921560Y-111098000D01*
X143968537Y-111340123D01*
X144108327Y-111552927D01*
X144218740Y-111627458D01*
X139004198Y-116842000D01*
X135817463Y-116842000D01*
X135785327Y-116809808D01*
X135441799Y-116667162D01*
X135069833Y-116666838D01*
X134726057Y-116808883D01*
X134462808Y-117071673D01*
X134320162Y-117415201D01*
X134319838Y-117787167D01*
X133131370Y-117787167D01*
X132854248Y-117602000D01*
X133169029Y-117391670D01*
X133493885Y-116905489D01*
X133607959Y-116332000D01*
X133493885Y-115758511D01*
X133169029Y-115272330D01*
X132845772Y-115056336D01*
X132968490Y-114998821D01*
X133362688Y-114566947D01*
X133534958Y-114151026D01*
X133413817Y-113919000D01*
X132207000Y-113919000D01*
X132207000Y-113939000D01*
X131953000Y-113939000D01*
X131953000Y-113919000D01*
X131933000Y-113919000D01*
X131933000Y-113665000D01*
X131953000Y-113665000D01*
X131953000Y-112457531D01*
X132207000Y-112457531D01*
X132207000Y-113665000D01*
X133413817Y-113665000D01*
X133534958Y-113432974D01*
X133362688Y-113017053D01*
X132968490Y-112585179D01*
X132439027Y-112337032D01*
X132207000Y-112457531D01*
X131953000Y-112457531D01*
X131953000Y-112457531D01*
X131720973Y-112337032D01*
X131191510Y-112585179D01*
X131020746Y-112772264D01*
X131004063Y-112686277D01*
X130864273Y-112473473D01*
X130653240Y-112331023D01*
X130403600Y-112280960D01*
X128676400Y-112280960D01*
X128434277Y-112327937D01*
X128221473Y-112467727D01*
X128079023Y-112678760D01*
X128028960Y-112928400D01*
X128028960Y-114655600D01*
X128075937Y-114897723D01*
X128215727Y-115110527D01*
X128426760Y-115252977D01*
X128467660Y-115261179D01*
X128450971Y-115272330D01*
X128126115Y-115758511D01*
X128012041Y-116332000D01*
X107238000Y-116332000D01*
X107238000Y-109262591D01*
X107615646Y-109262591D01*
X107917209Y-109992429D01*
X108475114Y-110551309D01*
X109204425Y-110854145D01*
X109994111Y-110854834D01*
X110535932Y-110630958D01*
X120039647Y-110630958D01*
X120119920Y-110882259D01*
X120675279Y-111083718D01*
X121265458Y-111057315D01*
X121688080Y-110882259D01*
X121768353Y-110630958D01*
X120904000Y-109766605D01*
X120039647Y-110630958D01*
X110535932Y-110630958D01*
X110723949Y-110553271D01*
X111282829Y-109995366D01*
X111547370Y-109358279D01*
X119407282Y-109358279D01*
X119433685Y-109948458D01*
X119608741Y-110371080D01*
X119860042Y-110451353D01*
X120724395Y-109587000D01*
X121083605Y-109587000D01*
X121947958Y-110451353D01*
X122199259Y-110371080D01*
X122400718Y-109815721D01*
X122374315Y-109225542D01*
X122199259Y-108802920D01*
X121947958Y-108722647D01*
X121083605Y-109587000D01*
X120724395Y-109587000D01*
X120724395Y-109587000D01*
X119860042Y-108722647D01*
X119608741Y-108802920D01*
X119407282Y-109358279D01*
X111547370Y-109358279D01*
X111585665Y-109266055D01*
X111586295Y-108543042D01*
X120039647Y-108543042D01*
X120904000Y-109407395D01*
X121768353Y-108543042D01*
X121688080Y-108291741D01*
X121132721Y-108090282D01*
X120542542Y-108116685D01*
X120119920Y-108291741D01*
X120039647Y-108543042D01*
X111586295Y-108543042D01*
X111586354Y-108476369D01*
X111284791Y-107746531D01*
X110726886Y-107187651D01*
X109997575Y-106884815D01*
X109207889Y-106884126D01*
X108478051Y-107185689D01*
X107919171Y-107743594D01*
X107616335Y-108472905D01*
X107615646Y-109262591D01*
X107238000Y-109262591D01*
X107238000Y-101876661D01*
X110903778Y-101876661D01*
X111116010Y-102390303D01*
X111508650Y-102783629D01*
X111716532Y-102869949D01*
X111510717Y-102954990D01*
X111117391Y-103347630D01*
X110904263Y-103860900D01*
X110903778Y-104416661D01*
X111116010Y-104930303D01*
X111508650Y-105323629D01*
X112021920Y-105536757D01*
X112577681Y-105537242D01*
X113091323Y-105325010D01*
X113296477Y-105120213D01*
X113499392Y-105120213D01*
X113568857Y-105362397D01*
X114092302Y-105549144D01*
X114647368Y-105521362D01*
X115031143Y-105362397D01*
X115100608Y-105120213D01*
X114300000Y-104319605D01*
X113499392Y-105120213D01*
X113296477Y-105120213D01*
X113484649Y-104932370D01*
X113595866Y-104664529D01*
X114120395Y-104140000D01*
X114479605Y-104140000D01*
X115280213Y-104940608D01*
X115522397Y-104871143D01*
X115709144Y-104347698D01*
X115681362Y-103792632D01*
X115522397Y-103408857D01*
X115280213Y-103339392D01*
X114479605Y-104140000D01*
X114120395Y-104140000D01*
X114120395Y-104140000D01*
X113595831Y-103615436D01*
X113486030Y-103349697D01*
X113093390Y-102956371D01*
X112885508Y-102870051D01*
X113091323Y-102785010D01*
X113300530Y-102576168D01*
X113507630Y-102783629D01*
X113699727Y-102863395D01*
X113568857Y-102917603D01*
X113499392Y-103159787D01*
X114300000Y-103960395D01*
X115100608Y-103159787D01*
X115031143Y-102917603D01*
X114890682Y-102867491D01*
X115090303Y-102785010D01*
X115483629Y-102392370D01*
X115696757Y-101879100D01*
X115697242Y-101323339D01*
X115485010Y-100809697D01*
X115092370Y-100416371D01*
X114579100Y-100203243D01*
X114023339Y-100202758D01*
X113509697Y-100414990D01*
X113300490Y-100623832D01*
X113093390Y-100416371D01*
X112580120Y-100203243D01*
X112024359Y-100202758D01*
X111510717Y-100414990D01*
X111117391Y-100807630D01*
X110904263Y-101320900D01*
X110903778Y-101876661D01*
X107238000Y-101876661D01*
X107238000Y-97263631D01*
X107615646Y-97263631D01*
X107917209Y-97993469D01*
X108475114Y-98552349D01*
X109204425Y-98855185D01*
X109994111Y-98855874D01*
X110723949Y-98554311D01*
X111165336Y-98113694D01*
X121682226Y-98113694D01*
X121930538Y-98714655D01*
X122389927Y-99174846D01*
X122878432Y-99377691D01*
X122392345Y-99578538D01*
X121932154Y-100037927D01*
X121682794Y-100638453D01*
X121682226Y-101288694D01*
X121930538Y-101889655D01*
X122389927Y-102349846D01*
X122878432Y-102552691D01*
X122392345Y-102753538D01*
X121932154Y-103212927D01*
X121682794Y-103813453D01*
X121682226Y-104463694D01*
X121930538Y-105064655D01*
X122389927Y-105524846D01*
X122990453Y-105774206D01*
X123640694Y-105774774D01*
X124241655Y-105526462D01*
X124701846Y-105067073D01*
X124951206Y-104466547D01*
X124951774Y-103816306D01*
X124703462Y-103215345D01*
X124244073Y-102755154D01*
X123755568Y-102552309D01*
X124241655Y-102351462D01*
X124701846Y-101892073D01*
X124951206Y-101291547D01*
X124951774Y-100641306D01*
X124703462Y-100040345D01*
X124244073Y-99580154D01*
X123755568Y-99377309D01*
X124241655Y-99176462D01*
X124701846Y-98717073D01*
X124951206Y-98116547D01*
X124951208Y-98113694D01*
X131842226Y-98113694D01*
X132090538Y-98714655D01*
X132549927Y-99174846D01*
X133038432Y-99377691D01*
X132552345Y-99578538D01*
X132092154Y-100037927D01*
X131842794Y-100638453D01*
X131842226Y-101288694D01*
X132090538Y-101889655D01*
X132549927Y-102349846D01*
X133038432Y-102552691D01*
X132552345Y-102753538D01*
X132092154Y-103212927D01*
X131842794Y-103813453D01*
X131842226Y-104463694D01*
X132090538Y-105064655D01*
X132549927Y-105524846D01*
X133150453Y-105774206D01*
X133800694Y-105774774D01*
X134401655Y-105526462D01*
X134861846Y-105067073D01*
X135111206Y-104466547D01*
X135111774Y-103816306D01*
X134863462Y-103215345D01*
X134404073Y-102755154D01*
X133915568Y-102552309D01*
X134401655Y-102351462D01*
X134861846Y-101892073D01*
X135111206Y-101291547D01*
X135111774Y-100641306D01*
X134863462Y-100040345D01*
X134404073Y-99580154D01*
X133915568Y-99377309D01*
X134401655Y-99176462D01*
X134861846Y-98717073D01*
X135111206Y-98116547D01*
X135111774Y-97466306D01*
X134863462Y-96865345D01*
X134404073Y-96405154D01*
X133803547Y-96155794D01*
X133153306Y-96155226D01*
X132552345Y-96403538D01*
X132092154Y-96862927D01*
X131842794Y-97463453D01*
X131842226Y-98113694D01*
X124951208Y-98113694D01*
X124951774Y-97466306D01*
X124703462Y-96865345D01*
X124244073Y-96405154D01*
X123643547Y-96155794D01*
X122993306Y-96155226D01*
X122392345Y-96403538D01*
X121932154Y-96862927D01*
X121682794Y-97463453D01*
X121682226Y-98113694D01*
X111165336Y-98113694D01*
X111282829Y-97996406D01*
X111585665Y-97267095D01*
X111586354Y-96477409D01*
X111284791Y-95747571D01*
X110726886Y-95188691D01*
X109997575Y-94885855D01*
X109207889Y-94885166D01*
X108478051Y-95186729D01*
X107919171Y-95744634D01*
X107616335Y-96473945D01*
X107615646Y-97263631D01*
X107238000Y-97263631D01*
X107238000Y-92134893D01*
X131891725Y-92134893D01*
X132132519Y-92717657D01*
X132577997Y-93163914D01*
X133160341Y-93405724D01*
X133790893Y-93406275D01*
X134373657Y-93165481D01*
X134470362Y-93068945D01*
X134606327Y-93275927D01*
X134817360Y-93418377D01*
X135067000Y-93468440D01*
X136967000Y-93468440D01*
X137209123Y-93421463D01*
X137421927Y-93281673D01*
X137564377Y-93070640D01*
X137614440Y-92821000D01*
X137614440Y-90821000D01*
X137567463Y-90578877D01*
X137427673Y-90366073D01*
X137216640Y-90223623D01*
X136967000Y-90173560D01*
X135067000Y-90173560D01*
X134824877Y-90220537D01*
X134612073Y-90360327D01*
X134469623Y-90571360D01*
X134469538Y-90571784D01*
X134376003Y-90478086D01*
X133793659Y-90236276D01*
X133163107Y-90235725D01*
X132580343Y-90476519D01*
X132134086Y-90921997D01*
X131892276Y-91504341D01*
X131891725Y-92134893D01*
X107238000Y-92134893D01*
X107238000Y-82352499D01*
X107313309Y-82534761D01*
X108062893Y-83285655D01*
X109042773Y-83692536D01*
X110103772Y-83693462D01*
X111084361Y-83288291D01*
X111835255Y-82538707D01*
X112242136Y-81558827D01*
X112243062Y-80497828D01*
X111837891Y-79517239D01*
X111088307Y-78766345D01*
X110839424Y-78663000D01*
X191216173Y-78663000D01*
X190972439Y-78763709D01*
M02*
