M48
;DRILL file {KiCad (2015-07-24 BZR 5991)-product} date Tuesday, July 28, 2015 'PMt' 09:29:13 PM
;FORMAT={2:4/ absolute / inch / suppress leading zeros}
FMAT,2
INCH,TZ
T1C0.016
T2C0.031
T3C0.032
T4C0.032
T5C0.039
T6C0.040
T7C0.047
T8C0.091
T9C0.120
%
G90
G05
M72
T1
X53250Y-46300
X54200Y-42800
X54850Y-40200
X54850Y-40600
X55000Y-42200
X55150Y-44150
X55500Y-42400
X55550Y-40900
X55550Y-43800
X56250Y-37100
X57350Y-38150
X58100Y-45200
X58300Y-41000
X59050Y-45750
X59850Y-38200
X61550Y-40250
X62000Y-39200
X62900Y-36600
X63050Y-43450
X63100Y-45200
X63150Y-37550
X63250Y-40250
X63550Y-45550
X63900Y-44250
X65000Y-45200
X74400Y-40600
X74550Y-42600
X74650Y-32250
X76000Y-38100
T2
X57350Y-46050
X69150Y-33750
T3
X58334Y-46050
X70134Y-33750
T4
X44213Y-40000
X44213Y-41000
X45000Y-40000
X45000Y-41000
X55400Y-47900
X55400Y-50900
X61400Y-47900
X61400Y-50900
X66600Y-35600
X66600Y-36600
X66600Y-37600
X66600Y-38600
X66600Y-39600
X66600Y-40600
X66600Y-41600
X66600Y-42600
X66600Y-43600
X66600Y-44600
X66600Y-45600
X66600Y-46600
X66600Y-47600
X66600Y-48600
X72600Y-35600
X72600Y-36600
X72600Y-37600
X72600Y-38600
X72600Y-39600
X72600Y-40600
X72600Y-41600
X72600Y-42600
X72600Y-43600
X72600Y-44600
X72600Y-45600
X72600Y-46600
X72600Y-47600
X72600Y-48600
T5
X48550Y-38500
X48550Y-39750
X48550Y-41000
X52550Y-36150
X52550Y-38500
X52550Y-39750
X52550Y-41000
X53550Y-36150
T6
X51000Y-44800
X51000Y-45800
X51000Y-46800
X52000Y-44800
X52000Y-45800
X52000Y-46800
T7
X47600Y-43144
X47600Y-49050
X57700Y-34800
X63606Y-34800
T8
X43150Y-38138
X43150Y-42862
T9
X43140Y-31900
X43160Y-51640
X75780Y-31900
X75780Y-51680
T0
M30
